ISO-10303-21;
HEADER;
/* Generated by software containing ST-Developer
 * from STEP Tools, Inc. (www.steptools.com) 
 */
/* OPTION: using custom renumber hook */

FILE_DESCRIPTION(
/* description */ ('STEP AP242 Edition 2',
'CAx-IF Rec.Pracs.---Representation and Presentation of Product Manufa
cturing Information (PMI)---4.0---2014-10-13',
'CAx-IF Rec.Pracs.---3D Tessellated Geometry---0.4---2014-09-14','2;1',
'CAx-IF Rec.Pracs.---User Defined Attributes---1.5---2016-08-15'),
/* implementation_level */ '2;1');

FILE_NAME(
/* name */ 'cover new design',
/* time_stamp */ '2026-09-01T19:46:36Z',
/* author */ (''),
/* organization */ (''),
/* preprocessor_version */ 'ST-DEVELOPER v20',
/* originating_system */ 'ONSHAPE BY PTC INC, 1.220',
/* authorisation */ '  ');

FILE_SCHEMA (('AP242_MANAGED_MODEL_BASED_3D_ENGINEERING_MIM_LF { 1 0 10303 442 3 1 4 }'));
ENDSEC;

DATA;
#10=CIRCLE('',#876,0.00144214368981008);
#11=CIRCLE('',#877,0.00144214368981008);
#12=CIRCLE('',#909,0.00144214368981008);
#13=CIRCLE('',#910,0.00144214368981008);
#14=CYLINDRICAL_SURFACE('',#875,0.00144214368981008);
#15=CYLINDRICAL_SURFACE('',#908,0.00144214368981008);
#16=SHAPE_REPRESENTATION_RELATIONSHIP('','',#861,#22);
#17=SHAPE_REPRESENTATION_RELATIONSHIP('','',#862,#23);
#18=SHAPE_REPRESENTATION_RELATIONSHIP('','',#863,#24);
#19=SHAPE_REPRESENTATION_RELATIONSHIP('','',#864,#25);
#20=SHAPE_REPRESENTATION_RELATIONSHIP('','',#865,#26);
#21=SHAPE_REPRESENTATION_RELATIONSHIP('','',#866,#27);
#22=ADVANCED_BREP_SHAPE_REPRESENTATION('',(#849),#1369);
#23=ADVANCED_BREP_SHAPE_REPRESENTATION('',(#850),#1370);
#24=ADVANCED_BREP_SHAPE_REPRESENTATION('',(#851),#1371);
#25=ADVANCED_BREP_SHAPE_REPRESENTATION('',(#852),#1372);
#26=ADVANCED_BREP_SHAPE_REPRESENTATION('',(#853),#1373);
#27=ADVANCED_BREP_SHAPE_REPRESENTATION('',(#854),#1374);
#28=ORIENTED_EDGE('',*,*,#234,.T.);
#29=ORIENTED_EDGE('',*,*,#235,.F.);
#30=ORIENTED_EDGE('',*,*,#236,.F.);
#31=ORIENTED_EDGE('',*,*,#237,.T.);
#32=ORIENTED_EDGE('',*,*,#238,.T.);
#33=ORIENTED_EDGE('',*,*,#239,.F.);
#34=ORIENTED_EDGE('',*,*,#240,.F.);
#35=ORIENTED_EDGE('',*,*,#235,.T.);
#36=ORIENTED_EDGE('',*,*,#241,.T.);
#37=ORIENTED_EDGE('',*,*,#242,.F.);
#38=ORIENTED_EDGE('',*,*,#243,.F.);
#39=ORIENTED_EDGE('',*,*,#239,.T.);
#40=ORIENTED_EDGE('',*,*,#244,.T.);
#41=ORIENTED_EDGE('',*,*,#237,.F.);
#42=ORIENTED_EDGE('',*,*,#245,.F.);
#43=ORIENTED_EDGE('',*,*,#242,.T.);
#44=ORIENTED_EDGE('',*,*,#236,.T.);
#45=ORIENTED_EDGE('',*,*,#240,.T.);
#46=ORIENTED_EDGE('',*,*,#243,.T.);
#47=ORIENTED_EDGE('',*,*,#245,.T.);
#48=ORIENTED_EDGE('',*,*,#234,.F.);
#49=ORIENTED_EDGE('',*,*,#244,.F.);
#50=ORIENTED_EDGE('',*,*,#241,.F.);
#51=ORIENTED_EDGE('',*,*,#238,.F.);
#52=ORIENTED_EDGE('',*,*,#246,.F.);
#53=ORIENTED_EDGE('',*,*,#247,.T.);
#54=ORIENTED_EDGE('',*,*,#246,.T.);
#55=ORIENTED_EDGE('',*,*,#247,.F.);
#56=ORIENTED_EDGE('',*,*,#248,.T.);
#57=ORIENTED_EDGE('',*,*,#249,.F.);
#58=ORIENTED_EDGE('',*,*,#250,.F.);
#59=ORIENTED_EDGE('',*,*,#251,.T.);
#60=ORIENTED_EDGE('',*,*,#252,.T.);
#61=ORIENTED_EDGE('',*,*,#253,.F.);
#62=ORIENTED_EDGE('',*,*,#254,.F.);
#63=ORIENTED_EDGE('',*,*,#249,.T.);
#64=ORIENTED_EDGE('',*,*,#255,.T.);
#65=ORIENTED_EDGE('',*,*,#256,.F.);
#66=ORIENTED_EDGE('',*,*,#257,.F.);
#67=ORIENTED_EDGE('',*,*,#253,.T.);
#68=ORIENTED_EDGE('',*,*,#258,.F.);
#69=ORIENTED_EDGE('',*,*,#259,.F.);
#70=ORIENTED_EDGE('',*,*,#260,.T.);
#71=ORIENTED_EDGE('',*,*,#256,.T.);
#72=ORIENTED_EDGE('',*,*,#261,.F.);
#73=ORIENTED_EDGE('',*,*,#262,.F.);
#74=ORIENTED_EDGE('',*,*,#263,.T.);
#75=ORIENTED_EDGE('',*,*,#259,.T.);
#76=ORIENTED_EDGE('',*,*,#264,.F.);
#77=ORIENTED_EDGE('',*,*,#265,.F.);
#78=ORIENTED_EDGE('',*,*,#266,.T.);
#79=ORIENTED_EDGE('',*,*,#262,.T.);
#80=ORIENTED_EDGE('',*,*,#267,.T.);
#81=ORIENTED_EDGE('',*,*,#268,.F.);
#82=ORIENTED_EDGE('',*,*,#269,.F.);
#83=ORIENTED_EDGE('',*,*,#265,.T.);
#84=ORIENTED_EDGE('',*,*,#270,.T.);
#85=ORIENTED_EDGE('',*,*,#271,.F.);
#86=ORIENTED_EDGE('',*,*,#272,.F.);
#87=ORIENTED_EDGE('',*,*,#268,.T.);
#88=ORIENTED_EDGE('',*,*,#273,.T.);
#89=ORIENTED_EDGE('',*,*,#274,.F.);
#90=ORIENTED_EDGE('',*,*,#275,.F.);
#91=ORIENTED_EDGE('',*,*,#271,.T.);
#92=ORIENTED_EDGE('',*,*,#276,.T.);
#93=ORIENTED_EDGE('',*,*,#277,.F.);
#94=ORIENTED_EDGE('',*,*,#278,.F.);
#95=ORIENTED_EDGE('',*,*,#274,.T.);
#96=ORIENTED_EDGE('',*,*,#279,.F.);
#97=ORIENTED_EDGE('',*,*,#280,.F.);
#98=ORIENTED_EDGE('',*,*,#281,.T.);
#99=ORIENTED_EDGE('',*,*,#277,.T.);
#100=ORIENTED_EDGE('',*,*,#282,.F.);
#101=ORIENTED_EDGE('',*,*,#283,.F.);
#102=ORIENTED_EDGE('',*,*,#284,.T.);
#103=ORIENTED_EDGE('',*,*,#280,.T.);
#104=ORIENTED_EDGE('',*,*,#285,.T.);
#105=ORIENTED_EDGE('',*,*,#286,.F.);
#106=ORIENTED_EDGE('',*,*,#287,.F.);
#107=ORIENTED_EDGE('',*,*,#283,.T.);
#108=ORIENTED_EDGE('',*,*,#288,.T.);
#109=ORIENTED_EDGE('',*,*,#289,.F.);
#110=ORIENTED_EDGE('',*,*,#290,.F.);
#111=ORIENTED_EDGE('',*,*,#286,.T.);
#112=ORIENTED_EDGE('',*,*,#291,.F.);
#113=ORIENTED_EDGE('',*,*,#292,.F.);
#114=ORIENTED_EDGE('',*,*,#293,.T.);
#115=ORIENTED_EDGE('',*,*,#289,.T.);
#116=ORIENTED_EDGE('',*,*,#294,.F.);
#117=ORIENTED_EDGE('',*,*,#295,.F.);
#118=ORIENTED_EDGE('',*,*,#296,.T.);
#119=ORIENTED_EDGE('',*,*,#292,.T.);
#120=ORIENTED_EDGE('',*,*,#297,.T.);
#121=ORIENTED_EDGE('',*,*,#251,.F.);
#122=ORIENTED_EDGE('',*,*,#298,.F.);
#123=ORIENTED_EDGE('',*,*,#295,.T.);
#124=ORIENTED_EDGE('',*,*,#250,.T.);
#125=ORIENTED_EDGE('',*,*,#254,.T.);
#126=ORIENTED_EDGE('',*,*,#257,.T.);
#127=ORIENTED_EDGE('',*,*,#260,.F.);
#128=ORIENTED_EDGE('',*,*,#263,.F.);
#129=ORIENTED_EDGE('',*,*,#266,.F.);
#130=ORIENTED_EDGE('',*,*,#269,.T.);
#131=ORIENTED_EDGE('',*,*,#272,.T.);
#132=ORIENTED_EDGE('',*,*,#275,.T.);
#133=ORIENTED_EDGE('',*,*,#278,.T.);
#134=ORIENTED_EDGE('',*,*,#281,.F.);
#135=ORIENTED_EDGE('',*,*,#284,.F.);
#136=ORIENTED_EDGE('',*,*,#287,.T.);
#137=ORIENTED_EDGE('',*,*,#290,.T.);
#138=ORIENTED_EDGE('',*,*,#293,.F.);
#139=ORIENTED_EDGE('',*,*,#296,.F.);
#140=ORIENTED_EDGE('',*,*,#298,.T.);
#141=ORIENTED_EDGE('',*,*,#248,.F.);
#142=ORIENTED_EDGE('',*,*,#297,.F.);
#143=ORIENTED_EDGE('',*,*,#294,.T.);
#144=ORIENTED_EDGE('',*,*,#291,.T.);
#145=ORIENTED_EDGE('',*,*,#288,.F.);
#146=ORIENTED_EDGE('',*,*,#285,.F.);
#147=ORIENTED_EDGE('',*,*,#282,.T.);
#148=ORIENTED_EDGE('',*,*,#279,.T.);
#149=ORIENTED_EDGE('',*,*,#276,.F.);
#150=ORIENTED_EDGE('',*,*,#273,.F.);
#151=ORIENTED_EDGE('',*,*,#270,.F.);
#152=ORIENTED_EDGE('',*,*,#267,.F.);
#153=ORIENTED_EDGE('',*,*,#264,.T.);
#154=ORIENTED_EDGE('',*,*,#261,.T.);
#155=ORIENTED_EDGE('',*,*,#258,.T.);
#156=ORIENTED_EDGE('',*,*,#255,.F.);
#157=ORIENTED_EDGE('',*,*,#252,.F.);
#158=ORIENTED_EDGE('',*,*,#299,.F.);
#159=ORIENTED_EDGE('',*,*,#300,.F.);
#160=ORIENTED_EDGE('',*,*,#301,.T.);
#161=ORIENTED_EDGE('',*,*,#302,.T.);
#162=ORIENTED_EDGE('',*,*,#303,.F.);
#163=ORIENTED_EDGE('',*,*,#304,.F.);
#164=ORIENTED_EDGE('',*,*,#305,.T.);
#165=ORIENTED_EDGE('',*,*,#300,.T.);
#166=ORIENTED_EDGE('',*,*,#306,.F.);
#167=ORIENTED_EDGE('',*,*,#307,.F.);
#168=ORIENTED_EDGE('',*,*,#308,.T.);
#169=ORIENTED_EDGE('',*,*,#304,.T.);
#170=ORIENTED_EDGE('',*,*,#309,.F.);
#171=ORIENTED_EDGE('',*,*,#302,.F.);
#172=ORIENTED_EDGE('',*,*,#310,.T.);
#173=ORIENTED_EDGE('',*,*,#307,.T.);
#174=ORIENTED_EDGE('',*,*,#301,.F.);
#175=ORIENTED_EDGE('',*,*,#305,.F.);
#176=ORIENTED_EDGE('',*,*,#308,.F.);
#177=ORIENTED_EDGE('',*,*,#310,.F.);
#178=ORIENTED_EDGE('',*,*,#299,.T.);
#179=ORIENTED_EDGE('',*,*,#309,.T.);
#180=ORIENTED_EDGE('',*,*,#306,.T.);
#181=ORIENTED_EDGE('',*,*,#303,.T.);
#182=ORIENTED_EDGE('',*,*,#311,.T.);
#183=ORIENTED_EDGE('',*,*,#312,.F.);
#184=ORIENTED_EDGE('',*,*,#311,.F.);
#185=ORIENTED_EDGE('',*,*,#312,.T.);
#186=ORIENTED_EDGE('',*,*,#313,.T.);
#187=ORIENTED_EDGE('',*,*,#314,.F.);
#188=ORIENTED_EDGE('',*,*,#315,.F.);
#189=ORIENTED_EDGE('',*,*,#316,.T.);
#190=ORIENTED_EDGE('',*,*,#317,.T.);
#191=ORIENTED_EDGE('',*,*,#316,.F.);
#192=ORIENTED_EDGE('',*,*,#318,.F.);
#193=ORIENTED_EDGE('',*,*,#319,.T.);
#194=ORIENTED_EDGE('',*,*,#320,.T.);
#195=ORIENTED_EDGE('',*,*,#319,.F.);
#196=ORIENTED_EDGE('',*,*,#321,.F.);
#197=ORIENTED_EDGE('',*,*,#322,.T.);
#198=ORIENTED_EDGE('',*,*,#323,.T.);
#199=ORIENTED_EDGE('',*,*,#322,.F.);
#200=ORIENTED_EDGE('',*,*,#324,.F.);
#201=ORIENTED_EDGE('',*,*,#325,.T.);
#202=ORIENTED_EDGE('',*,*,#326,.T.);
#203=ORIENTED_EDGE('',*,*,#325,.F.);
#204=ORIENTED_EDGE('',*,*,#327,.F.);
#205=ORIENTED_EDGE('',*,*,#328,.T.);
#206=ORIENTED_EDGE('',*,*,#329,.F.);
#207=ORIENTED_EDGE('',*,*,#328,.F.);
#208=ORIENTED_EDGE('',*,*,#330,.T.);
#209=ORIENTED_EDGE('',*,*,#331,.T.);
#210=ORIENTED_EDGE('',*,*,#332,.F.);
#211=ORIENTED_EDGE('',*,*,#331,.F.);
#212=ORIENTED_EDGE('',*,*,#333,.T.);
#213=ORIENTED_EDGE('',*,*,#334,.T.);
#214=ORIENTED_EDGE('',*,*,#335,.T.);
#215=ORIENTED_EDGE('',*,*,#334,.F.);
#216=ORIENTED_EDGE('',*,*,#336,.F.);
#217=ORIENTED_EDGE('',*,*,#314,.T.);
#218=ORIENTED_EDGE('',*,*,#315,.T.);
#219=ORIENTED_EDGE('',*,*,#336,.T.);
#220=ORIENTED_EDGE('',*,*,#333,.F.);
#221=ORIENTED_EDGE('',*,*,#330,.F.);
#222=ORIENTED_EDGE('',*,*,#327,.T.);
#223=ORIENTED_EDGE('',*,*,#324,.T.);
#224=ORIENTED_EDGE('',*,*,#321,.T.);
#225=ORIENTED_EDGE('',*,*,#318,.T.);
#226=ORIENTED_EDGE('',*,*,#313,.F.);
#227=ORIENTED_EDGE('',*,*,#317,.F.);
#228=ORIENTED_EDGE('',*,*,#320,.F.);
#229=ORIENTED_EDGE('',*,*,#323,.F.);
#230=ORIENTED_EDGE('',*,*,#326,.F.);
#231=ORIENTED_EDGE('',*,*,#329,.T.);
#232=ORIENTED_EDGE('',*,*,#332,.T.);
#233=ORIENTED_EDGE('',*,*,#335,.F.);
#234=EDGE_CURVE('',#337,#338,#407,.T.);
#235=EDGE_CURVE('',#339,#338,#408,.T.);
#236=EDGE_CURVE('',#340,#339,#409,.T.);
#237=EDGE_CURVE('',#340,#337,#410,.T.);
#238=EDGE_CURVE('',#338,#341,#411,.T.);
#239=EDGE_CURVE('',#342,#341,#412,.T.);
#240=EDGE_CURVE('',#339,#342,#413,.T.);
#241=EDGE_CURVE('',#341,#343,#414,.T.);
#242=EDGE_CURVE('',#344,#343,#415,.T.);
#243=EDGE_CURVE('',#342,#344,#416,.T.);
#244=EDGE_CURVE('',#343,#337,#417,.T.);
#245=EDGE_CURVE('',#344,#340,#418,.T.);
#246=EDGE_CURVE('',#345,#345,#10,.T.);
#247=EDGE_CURVE('',#346,#346,#11,.T.);
#248=EDGE_CURVE('',#347,#348,#419,.T.);
#249=EDGE_CURVE('',#349,#348,#420,.T.);
#250=EDGE_CURVE('',#350,#349,#421,.T.);
#251=EDGE_CURVE('',#350,#347,#422,.T.);
#252=EDGE_CURVE('',#348,#351,#423,.T.);
#253=EDGE_CURVE('',#352,#351,#424,.T.);
#254=EDGE_CURVE('',#349,#352,#425,.T.);
#255=EDGE_CURVE('',#351,#353,#426,.T.);
#256=EDGE_CURVE('',#354,#353,#427,.T.);
#257=EDGE_CURVE('',#352,#354,#428,.T.);
#258=EDGE_CURVE('',#355,#353,#429,.T.);
#259=EDGE_CURVE('',#356,#355,#430,.T.);
#260=EDGE_CURVE('',#356,#354,#431,.T.);
#261=EDGE_CURVE('',#357,#355,#432,.T.);
#262=EDGE_CURVE('',#358,#357,#433,.T.);
#263=EDGE_CURVE('',#358,#356,#434,.T.);
#264=EDGE_CURVE('',#359,#357,#435,.T.);
#265=EDGE_CURVE('',#360,#359,#436,.T.);
#266=EDGE_CURVE('',#360,#358,#437,.T.);
#267=EDGE_CURVE('',#359,#361,#438,.T.);
#268=EDGE_CURVE('',#362,#361,#439,.T.);
#269=EDGE_CURVE('',#360,#362,#440,.T.);
#270=EDGE_CURVE('',#361,#363,#441,.T.);
#271=EDGE_CURVE('',#364,#363,#442,.T.);
#272=EDGE_CURVE('',#362,#364,#443,.T.);
#273=EDGE_CURVE('',#363,#365,#444,.T.);
#274=EDGE_CURVE('',#366,#365,#445,.T.);
#275=EDGE_CURVE('',#364,#366,#446,.T.);
#276=EDGE_CURVE('',#365,#367,#447,.T.);
#277=EDGE_CURVE('',#368,#367,#448,.T.);
#278=EDGE_CURVE('',#366,#368,#449,.T.);
#279=EDGE_CURVE('',#369,#367,#450,.T.);
#280=EDGE_CURVE('',#370,#369,#451,.T.);
#281=EDGE_CURVE('',#370,#368,#452,.T.);
#282=EDGE_CURVE('',#371,#369,#453,.T.);
#283=EDGE_CURVE('',#372,#371,#454,.T.);
#284=EDGE_CURVE('',#372,#370,#455,.T.);
#285=EDGE_CURVE('',#371,#373,#456,.T.);
#286=EDGE_CURVE('',#374,#373,#457,.T.);
#287=EDGE_CURVE('',#372,#374,#458,.T.);
#288=EDGE_CURVE('',#373,#375,#459,.T.);
#289=EDGE_CURVE('',#376,#375,#460,.T.);
#290=EDGE_CURVE('',#374,#376,#461,.T.);
#291=EDGE_CURVE('',#377,#375,#462,.T.);
#292=EDGE_CURVE('',#378,#377,#463,.T.);
#293=EDGE_CURVE('',#378,#376,#464,.T.);
#294=EDGE_CURVE('',#379,#377,#465,.T.);
#295=EDGE_CURVE('',#380,#379,#466,.T.);
#296=EDGE_CURVE('',#380,#378,#467,.T.);
#297=EDGE_CURVE('',#379,#347,#468,.T.);
#298=EDGE_CURVE('',#380,#350,#469,.T.);
#299=EDGE_CURVE('',#381,#382,#470,.T.);
#300=EDGE_CURVE('',#383,#381,#471,.T.);
#301=EDGE_CURVE('',#383,#384,#472,.T.);
#302=EDGE_CURVE('',#384,#382,#473,.T.);
#303=EDGE_CURVE('',#385,#381,#474,.T.);
#304=EDGE_CURVE('',#386,#385,#475,.T.);
#305=EDGE_CURVE('',#386,#383,#476,.T.);
#306=EDGE_CURVE('',#387,#385,#477,.T.);
#307=EDGE_CURVE('',#388,#387,#478,.T.);
#308=EDGE_CURVE('',#388,#386,#479,.T.);
#309=EDGE_CURVE('',#382,#387,#480,.T.);
#310=EDGE_CURVE('',#384,#388,#481,.T.);
#311=EDGE_CURVE('',#389,#389,#12,.T.);
#312=EDGE_CURVE('',#390,#390,#13,.T.);
#313=EDGE_CURVE('',#391,#392,#482,.T.);
#314=EDGE_CURVE('',#393,#392,#483,.T.);
#315=EDGE_CURVE('',#394,#393,#484,.T.);
#316=EDGE_CURVE('',#394,#391,#485,.T.);
#317=EDGE_CURVE('',#395,#391,#486,.T.);
#318=EDGE_CURVE('',#396,#394,#487,.T.);
#319=EDGE_CURVE('',#396,#395,#488,.T.);
#320=EDGE_CURVE('',#397,#395,#489,.T.);
#321=EDGE_CURVE('',#398,#396,#490,.T.);
#322=EDGE_CURVE('',#398,#397,#491,.T.);
#323=EDGE_CURVE('',#399,#397,#492,.T.);
#324=EDGE_CURVE('',#400,#398,#493,.T.);
#325=EDGE_CURVE('',#400,#399,#494,.T.);
#326=EDGE_CURVE('',#401,#399,#495,.T.);
#327=EDGE_CURVE('',#402,#400,#496,.T.);
#328=EDGE_CURVE('',#402,#401,#497,.T.);
#329=EDGE_CURVE('',#401,#403,#498,.T.);
#330=EDGE_CURVE('',#402,#404,#499,.T.);
#331=EDGE_CURVE('',#404,#403,#500,.T.);
#332=EDGE_CURVE('',#403,#405,#501,.T.);
#333=EDGE_CURVE('',#404,#406,#502,.T.);
#334=EDGE_CURVE('',#406,#405,#503,.T.);
#335=EDGE_CURVE('',#392,#405,#504,.T.);
#336=EDGE_CURVE('',#393,#406,#505,.T.);
#337=VERTEX_POINT('',#1140);
#338=VERTEX_POINT('',#1141);
#339=VERTEX_POINT('',#1143);
#340=VERTEX_POINT('',#1145);
#341=VERTEX_POINT('',#1149);
#342=VERTEX_POINT('',#1151);
#343=VERTEX_POINT('',#1155);
#344=VERTEX_POINT('',#1157);
#345=VERTEX_POINT('',#1167);
#346=VERTEX_POINT('',#1169);
#347=VERTEX_POINT('',#1175);
#348=VERTEX_POINT('',#1176);
#349=VERTEX_POINT('',#1178);
#350=VERTEX_POINT('',#1180);
#351=VERTEX_POINT('',#1184);
#352=VERTEX_POINT('',#1186);
#353=VERTEX_POINT('',#1190);
#354=VERTEX_POINT('',#1192);
#355=VERTEX_POINT('',#1196);
#356=VERTEX_POINT('',#1198);
#357=VERTEX_POINT('',#1202);
#358=VERTEX_POINT('',#1204);
#359=VERTEX_POINT('',#1208);
#360=VERTEX_POINT('',#1210);
#361=VERTEX_POINT('',#1214);
#362=VERTEX_POINT('',#1216);
#363=VERTEX_POINT('',#1220);
#364=VERTEX_POINT('',#1222);
#365=VERTEX_POINT('',#1226);
#366=VERTEX_POINT('',#1228);
#367=VERTEX_POINT('',#1232);
#368=VERTEX_POINT('',#1234);
#369=VERTEX_POINT('',#1238);
#370=VERTEX_POINT('',#1240);
#371=VERTEX_POINT('',#1244);
#372=VERTEX_POINT('',#1246);
#373=VERTEX_POINT('',#1250);
#374=VERTEX_POINT('',#1252);
#375=VERTEX_POINT('',#1256);
#376=VERTEX_POINT('',#1258);
#377=VERTEX_POINT('',#1262);
#378=VERTEX_POINT('',#1264);
#379=VERTEX_POINT('',#1268);
#380=VERTEX_POINT('',#1270);
#381=VERTEX_POINT('',#1280);
#382=VERTEX_POINT('',#1281);
#383=VERTEX_POINT('',#1283);
#384=VERTEX_POINT('',#1285);
#385=VERTEX_POINT('',#1289);
#386=VERTEX_POINT('',#1291);
#387=VERTEX_POINT('',#1295);
#388=VERTEX_POINT('',#1297);
#389=VERTEX_POINT('',#1307);
#390=VERTEX_POINT('',#1309);
#391=VERTEX_POINT('',#1315);
#392=VERTEX_POINT('',#1316);
#393=VERTEX_POINT('',#1318);
#394=VERTEX_POINT('',#1320);
#395=VERTEX_POINT('',#1324);
#396=VERTEX_POINT('',#1326);
#397=VERTEX_POINT('',#1330);
#398=VERTEX_POINT('',#1332);
#399=VERTEX_POINT('',#1336);
#400=VERTEX_POINT('',#1338);
#401=VERTEX_POINT('',#1342);
#402=VERTEX_POINT('',#1344);
#403=VERTEX_POINT('',#1348);
#404=VERTEX_POINT('',#1350);
#405=VERTEX_POINT('',#1354);
#406=VERTEX_POINT('',#1356);
#407=LINE('',#1139,#506);
#408=LINE('',#1142,#507);
#409=LINE('',#1144,#508);
#410=LINE('',#1146,#509);
#411=LINE('',#1148,#510);
#412=LINE('',#1150,#511);
#413=LINE('',#1152,#512);
#414=LINE('',#1154,#513);
#415=LINE('',#1156,#514);
#416=LINE('',#1158,#515);
#417=LINE('',#1160,#516);
#418=LINE('',#1161,#517);
#419=LINE('',#1174,#518);
#420=LINE('',#1177,#519);
#421=LINE('',#1179,#520);
#422=LINE('',#1181,#521);
#423=LINE('',#1183,#522);
#424=LINE('',#1185,#523);
#425=LINE('',#1187,#524);
#426=LINE('',#1189,#525);
#427=LINE('',#1191,#526);
#428=LINE('',#1193,#527);
#429=LINE('',#1195,#528);
#430=LINE('',#1197,#529);
#431=LINE('',#1199,#530);
#432=LINE('',#1201,#531);
#433=LINE('',#1203,#532);
#434=LINE('',#1205,#533);
#435=LINE('',#1207,#534);
#436=LINE('',#1209,#535);
#437=LINE('',#1211,#536);
#438=LINE('',#1213,#537);
#439=LINE('',#1215,#538);
#440=LINE('',#1217,#539);
#441=LINE('',#1219,#540);
#442=LINE('',#1221,#541);
#443=LINE('',#1223,#542);
#444=LINE('',#1225,#543);
#445=LINE('',#1227,#544);
#446=LINE('',#1229,#545);
#447=LINE('',#1231,#546);
#448=LINE('',#1233,#547);
#449=LINE('',#1235,#548);
#450=LINE('',#1237,#549);
#451=LINE('',#1239,#550);
#452=LINE('',#1241,#551);
#453=LINE('',#1243,#552);
#454=LINE('',#1245,#553);
#455=LINE('',#1247,#554);
#456=LINE('',#1249,#555);
#457=LINE('',#1251,#556);
#458=LINE('',#1253,#557);
#459=LINE('',#1255,#558);
#460=LINE('',#1257,#559);
#461=LINE('',#1259,#560);
#462=LINE('',#1261,#561);
#463=LINE('',#1263,#562);
#464=LINE('',#1265,#563);
#465=LINE('',#1267,#564);
#466=LINE('',#1269,#565);
#467=LINE('',#1271,#566);
#468=LINE('',#1273,#567);
#469=LINE('',#1274,#568);
#470=LINE('',#1279,#569);
#471=LINE('',#1282,#570);
#472=LINE('',#1284,#571);
#473=LINE('',#1286,#572);
#474=LINE('',#1288,#573);
#475=LINE('',#1290,#574);
#476=LINE('',#1292,#575);
#477=LINE('',#1294,#576);
#478=LINE('',#1296,#577);
#479=LINE('',#1298,#578);
#480=LINE('',#1300,#579);
#481=LINE('',#1301,#580);
#482=LINE('',#1314,#581);
#483=LINE('',#1317,#582);
#484=LINE('',#1319,#583);
#485=LINE('',#1321,#584);
#486=LINE('',#1323,#585);
#487=LINE('',#1325,#586);
#488=LINE('',#1327,#587);
#489=LINE('',#1329,#588);
#490=LINE('',#1331,#589);
#491=LINE('',#1333,#590);
#492=LINE('',#1335,#591);
#493=LINE('',#1337,#592);
#494=LINE('',#1339,#593);
#495=LINE('',#1341,#594);
#496=LINE('',#1343,#595);
#497=LINE('',#1345,#596);
#498=LINE('',#1347,#597);
#499=LINE('',#1349,#598);
#500=LINE('',#1351,#599);
#501=LINE('',#1353,#600);
#502=LINE('',#1355,#601);
#503=LINE('',#1357,#602);
#504=LINE('',#1359,#603);
#505=LINE('',#1360,#604);
#506=VECTOR('',#928,1.);
#507=VECTOR('',#929,1.);
#508=VECTOR('',#930,1.);
#509=VECTOR('',#931,1.);
#510=VECTOR('',#934,1.);
#511=VECTOR('',#935,1.);
#512=VECTOR('',#936,1.);
#513=VECTOR('',#939,1.);
#514=VECTOR('',#940,1.);
#515=VECTOR('',#941,1.);
#516=VECTOR('',#944,1.);
#517=VECTOR('',#945,1.);
#518=VECTOR('',#966,1.);
#519=VECTOR('',#967,1.);
#520=VECTOR('',#968,1.);
#521=VECTOR('',#969,1.);
#522=VECTOR('',#972,1.);
#523=VECTOR('',#973,1.);
#524=VECTOR('',#974,1.);
#525=VECTOR('',#977,1.);
#526=VECTOR('',#978,1.);
#527=VECTOR('',#979,1.);
#528=VECTOR('',#982,1.);
#529=VECTOR('',#983,1.);
#530=VECTOR('',#984,1.);
#531=VECTOR('',#987,1.);
#532=VECTOR('',#988,1.);
#533=VECTOR('',#989,1.);
#534=VECTOR('',#992,1.);
#535=VECTOR('',#993,1.);
#536=VECTOR('',#994,1.);
#537=VECTOR('',#997,1.);
#538=VECTOR('',#998,1.);
#539=VECTOR('',#999,1.);
#540=VECTOR('',#1002,1.);
#541=VECTOR('',#1003,1.);
#542=VECTOR('',#1004,1.);
#543=VECTOR('',#1007,1.);
#544=VECTOR('',#1008,1.);
#545=VECTOR('',#1009,1.);
#546=VECTOR('',#1012,1.);
#547=VECTOR('',#1013,1.);
#548=VECTOR('',#1014,1.);
#549=VECTOR('',#1017,1.);
#550=VECTOR('',#1018,1.);
#551=VECTOR('',#1019,1.);
#552=VECTOR('',#1022,1.);
#553=VECTOR('',#1023,1.);
#554=VECTOR('',#1024,1.);
#555=VECTOR('',#1027,1.);
#556=VECTOR('',#1028,1.);
#557=VECTOR('',#1029,1.);
#558=VECTOR('',#1032,1.);
#559=VECTOR('',#1033,1.);
#560=VECTOR('',#1034,1.);
#561=VECTOR('',#1037,1.);
#562=VECTOR('',#1038,1.);
#563=VECTOR('',#1039,1.);
#564=VECTOR('',#1042,1.);
#565=VECTOR('',#1043,1.);
#566=VECTOR('',#1044,1.);
#567=VECTOR('',#1047,1.);
#568=VECTOR('',#1048,1.);
#569=VECTOR('',#1057,1.);
#570=VECTOR('',#1058,1.);
#571=VECTOR('',#1059,1.);
#572=VECTOR('',#1060,1.);
#573=VECTOR('',#1063,1.);
#574=VECTOR('',#1064,1.);
#575=VECTOR('',#1065,1.);
#576=VECTOR('',#1068,1.);
#577=VECTOR('',#1069,1.);
#578=VECTOR('',#1070,1.);
#579=VECTOR('',#1073,1.);
#580=VECTOR('',#1074,1.);
#581=VECTOR('',#1095,1.);
#582=VECTOR('',#1096,1.);
#583=VECTOR('',#1097,1.);
#584=VECTOR('',#1098,1.);
#585=VECTOR('',#1101,1.);
#586=VECTOR('',#1102,1.);
#587=VECTOR('',#1103,1.);
#588=VECTOR('',#1106,1.);
#589=VECTOR('',#1107,1.);
#590=VECTOR('',#1108,1.);
#591=VECTOR('',#1111,1.);
#592=VECTOR('',#1112,1.);
#593=VECTOR('',#1113,1.);
#594=VECTOR('',#1116,1.);
#595=VECTOR('',#1117,1.);
#596=VECTOR('',#1118,1.);
#597=VECTOR('',#1121,1.);
#598=VECTOR('',#1122,1.);
#599=VECTOR('',#1123,1.);
#600=VECTOR('',#1126,1.);
#601=VECTOR('',#1127,1.);
#602=VECTOR('',#1128,1.);
#603=VECTOR('',#1131,1.);
#604=VECTOR('',#1132,1.);
#605=EDGE_LOOP('',(#28,#29,#30,#31));
#606=EDGE_LOOP('',(#32,#33,#34,#35));
#607=EDGE_LOOP('',(#36,#37,#38,#39));
#608=EDGE_LOOP('',(#40,#41,#42,#43));
#609=EDGE_LOOP('',(#44,#45,#46,#47));
#610=EDGE_LOOP('',(#48,#49,#50,#51));
#611=EDGE_LOOP('',(#52));
#612=EDGE_LOOP('',(#53));
#613=EDGE_LOOP('',(#54));
#614=EDGE_LOOP('',(#55));
#615=EDGE_LOOP('',(#56,#57,#58,#59));
#616=EDGE_LOOP('',(#60,#61,#62,#63));
#617=EDGE_LOOP('',(#64,#65,#66,#67));
#618=EDGE_LOOP('',(#68,#69,#70,#71));
#619=EDGE_LOOP('',(#72,#73,#74,#75));
#620=EDGE_LOOP('',(#76,#77,#78,#79));
#621=EDGE_LOOP('',(#80,#81,#82,#83));
#622=EDGE_LOOP('',(#84,#85,#86,#87));
#623=EDGE_LOOP('',(#88,#89,#90,#91));
#624=EDGE_LOOP('',(#92,#93,#94,#95));
#625=EDGE_LOOP('',(#96,#97,#98,#99));
#626=EDGE_LOOP('',(#100,#101,#102,#103));
#627=EDGE_LOOP('',(#104,#105,#106,#107));
#628=EDGE_LOOP('',(#108,#109,#110,#111));
#629=EDGE_LOOP('',(#112,#113,#114,#115));
#630=EDGE_LOOP('',(#116,#117,#118,#119));
#631=EDGE_LOOP('',(#120,#121,#122,#123));
#632=EDGE_LOOP('',(#124,#125,#126,#127,#128,#129,#130,#131,#132,#133,#134,
#135,#136,#137,#138,#139,#140));
#633=EDGE_LOOP('',(#141,#142,#143,#144,#145,#146,#147,#148,#149,#150,#151,
#152,#153,#154,#155,#156,#157));
#634=EDGE_LOOP('',(#158,#159,#160,#161));
#635=EDGE_LOOP('',(#162,#163,#164,#165));
#636=EDGE_LOOP('',(#166,#167,#168,#169));
#637=EDGE_LOOP('',(#170,#171,#172,#173));
#638=EDGE_LOOP('',(#174,#175,#176,#177));
#639=EDGE_LOOP('',(#178,#179,#180,#181));
#640=EDGE_LOOP('',(#182));
#641=EDGE_LOOP('',(#183));
#642=EDGE_LOOP('',(#184));
#643=EDGE_LOOP('',(#185));
#644=EDGE_LOOP('',(#186,#187,#188,#189));
#645=EDGE_LOOP('',(#190,#191,#192,#193));
#646=EDGE_LOOP('',(#194,#195,#196,#197));
#647=EDGE_LOOP('',(#198,#199,#200,#201));
#648=EDGE_LOOP('',(#202,#203,#204,#205));
#649=EDGE_LOOP('',(#206,#207,#208,#209));
#650=EDGE_LOOP('',(#210,#211,#212,#213));
#651=EDGE_LOOP('',(#214,#215,#216,#217));
#652=EDGE_LOOP('',(#218,#219,#220,#221,#222,#223,#224,#225));
#653=EDGE_LOOP('',(#226,#227,#228,#229,#230,#231,#232,#233));
#654=FACE_BOUND('',#605,.T.);
#655=FACE_BOUND('',#606,.T.);
#656=FACE_BOUND('',#607,.T.);
#657=FACE_BOUND('',#608,.T.);
#658=FACE_BOUND('',#609,.T.);
#659=FACE_BOUND('',#610,.T.);
#660=FACE_BOUND('',#611,.T.);
#661=FACE_BOUND('',#612,.T.);
#662=FACE_BOUND('',#613,.T.);
#663=FACE_BOUND('',#614,.T.);
#664=FACE_BOUND('',#615,.T.);
#665=FACE_BOUND('',#616,.T.);
#666=FACE_BOUND('',#617,.T.);
#667=FACE_BOUND('',#618,.T.);
#668=FACE_BOUND('',#619,.T.);
#669=FACE_BOUND('',#620,.T.);
#670=FACE_BOUND('',#621,.T.);
#671=FACE_BOUND('',#622,.T.);
#672=FACE_BOUND('',#623,.T.);
#673=FACE_BOUND('',#624,.T.);
#674=FACE_BOUND('',#625,.T.);
#675=FACE_BOUND('',#626,.T.);
#676=FACE_BOUND('',#627,.T.);
#677=FACE_BOUND('',#628,.T.);
#678=FACE_BOUND('',#629,.T.);
#679=FACE_BOUND('',#630,.T.);
#680=FACE_BOUND('',#631,.T.);
#681=FACE_BOUND('',#632,.T.);
#682=FACE_BOUND('',#633,.T.);
#683=FACE_BOUND('',#634,.T.);
#684=FACE_BOUND('',#635,.T.);
#685=FACE_BOUND('',#636,.T.);
#686=FACE_BOUND('',#637,.T.);
#687=FACE_BOUND('',#638,.T.);
#688=FACE_BOUND('',#639,.T.);
#689=FACE_BOUND('',#640,.T.);
#690=FACE_BOUND('',#641,.T.);
#691=FACE_BOUND('',#642,.T.);
#692=FACE_BOUND('',#643,.T.);
#693=FACE_BOUND('',#644,.T.);
#694=FACE_BOUND('',#645,.T.);
#695=FACE_BOUND('',#646,.T.);
#696=FACE_BOUND('',#647,.T.);
#697=FACE_BOUND('',#648,.T.);
#698=FACE_BOUND('',#649,.T.);
#699=FACE_BOUND('',#650,.T.);
#700=FACE_BOUND('',#651,.T.);
#701=FACE_BOUND('',#652,.T.);
#702=FACE_BOUND('',#653,.T.);
#703=PLANE('',#868);
#704=PLANE('',#869);
#705=PLANE('',#870);
#706=PLANE('',#871);
#707=PLANE('',#872);
#708=PLANE('',#873);
#709=PLANE('',#878);
#710=PLANE('',#879);
#711=PLANE('',#881);
#712=PLANE('',#882);
#713=PLANE('',#883);
#714=PLANE('',#884);
#715=PLANE('',#885);
#716=PLANE('',#886);
#717=PLANE('',#887);
#718=PLANE('',#888);
#719=PLANE('',#889);
#720=PLANE('',#890);
#721=PLANE('',#891);
#722=PLANE('',#892);
#723=PLANE('',#893);
#724=PLANE('',#894);
#725=PLANE('',#895);
#726=PLANE('',#896);
#727=PLANE('',#897);
#728=PLANE('',#898);
#729=PLANE('',#899);
#730=PLANE('',#901);
#731=PLANE('',#902);
#732=PLANE('',#903);
#733=PLANE('',#904);
#734=PLANE('',#905);
#735=PLANE('',#906);
#736=PLANE('',#911);
#737=PLANE('',#912);
#738=PLANE('',#914);
#739=PLANE('',#915);
#740=PLANE('',#916);
#741=PLANE('',#917);
#742=PLANE('',#918);
#743=PLANE('',#919);
#744=PLANE('',#920);
#745=PLANE('',#921);
#746=PLANE('',#922);
#747=PLANE('',#923);
#748=ADVANCED_FACE('',(#654),#703,.F.);
#749=ADVANCED_FACE('',(#655),#704,.F.);
#750=ADVANCED_FACE('',(#656),#705,.F.);
#751=ADVANCED_FACE('',(#657),#706,.F.);
#752=ADVANCED_FACE('',(#658),#707,.T.);
#753=ADVANCED_FACE('',(#659),#708,.F.);
#754=ADVANCED_FACE('',(#660,#661),#14,.T.);
#755=ADVANCED_FACE('',(#662),#709,.T.);
#756=ADVANCED_FACE('',(#663),#710,.F.);
#757=ADVANCED_FACE('',(#664),#711,.F.);
#758=ADVANCED_FACE('',(#665),#712,.F.);
#759=ADVANCED_FACE('',(#666),#713,.F.);
#760=ADVANCED_FACE('',(#667),#714,.T.);
#761=ADVANCED_FACE('',(#668),#715,.T.);
#762=ADVANCED_FACE('',(#669),#716,.T.);
#763=ADVANCED_FACE('',(#670),#717,.F.);
#764=ADVANCED_FACE('',(#671),#718,.F.);
#765=ADVANCED_FACE('',(#672),#719,.F.);
#766=ADVANCED_FACE('',(#673),#720,.F.);
#767=ADVANCED_FACE('',(#674),#721,.T.);
#768=ADVANCED_FACE('',(#675),#722,.T.);
#769=ADVANCED_FACE('',(#676),#723,.F.);
#770=ADVANCED_FACE('',(#677),#724,.F.);
#771=ADVANCED_FACE('',(#678),#725,.T.);
#772=ADVANCED_FACE('',(#679),#726,.T.);
#773=ADVANCED_FACE('',(#680),#727,.F.);
#774=ADVANCED_FACE('',(#681),#728,.T.);
#775=ADVANCED_FACE('',(#682),#729,.F.);
#776=ADVANCED_FACE('',(#683),#730,.T.);
#777=ADVANCED_FACE('',(#684),#731,.T.);
#778=ADVANCED_FACE('',(#685),#732,.T.);
#779=ADVANCED_FACE('',(#686),#733,.T.);
#780=ADVANCED_FACE('',(#687),#734,.T.);
#781=ADVANCED_FACE('',(#688),#735,.F.);
#782=ADVANCED_FACE('',(#689,#690),#15,.T.);
#783=ADVANCED_FACE('',(#691),#736,.T.);
#784=ADVANCED_FACE('',(#692),#737,.F.);
#785=ADVANCED_FACE('',(#693),#738,.F.);
#786=ADVANCED_FACE('',(#694),#739,.F.);
#787=ADVANCED_FACE('',(#695),#740,.F.);
#788=ADVANCED_FACE('',(#696),#741,.F.);
#789=ADVANCED_FACE('',(#697),#742,.F.);
#790=ADVANCED_FACE('',(#698),#743,.T.);
#791=ADVANCED_FACE('',(#699),#744,.T.);
#792=ADVANCED_FACE('',(#700),#745,.F.);
#793=ADVANCED_FACE('',(#701),#746,.F.);
#794=ADVANCED_FACE('',(#702),#747,.T.);
#795=CLOSED_SHELL('',(#748,#749,#750,#751,#752,#753));
#796=CLOSED_SHELL('',(#754,#755,#756));
#797=CLOSED_SHELL('',(#757,#758,#759,#760,#761,#762,#763,#764,#765,#766,
#767,#768,#769,#770,#771,#772,#773,#774,#775));
#798=CLOSED_SHELL('',(#776,#777,#778,#779,#780,#781));
#799=CLOSED_SHELL('',(#782,#783,#784));
#800=CLOSED_SHELL('',(#785,#786,#787,#788,#789,#790,#791,#792,#793,#794));
#801=STYLED_ITEM('',(#807),#849);
#802=STYLED_ITEM('',(#808),#850);
#803=STYLED_ITEM('',(#809),#851);
#804=STYLED_ITEM('',(#810),#852);
#805=STYLED_ITEM('',(#811),#853);
#806=STYLED_ITEM('',(#812),#854);
#807=PRESENTATION_STYLE_ASSIGNMENT((#813));
#808=PRESENTATION_STYLE_ASSIGNMENT((#814));
#809=PRESENTATION_STYLE_ASSIGNMENT((#815));
#810=PRESENTATION_STYLE_ASSIGNMENT((#816));
#811=PRESENTATION_STYLE_ASSIGNMENT((#817));
#812=PRESENTATION_STYLE_ASSIGNMENT((#818));
#813=SURFACE_STYLE_USAGE(.BOTH.,#819);
#814=SURFACE_STYLE_USAGE(.BOTH.,#820);
#815=SURFACE_STYLE_USAGE(.BOTH.,#821);
#816=SURFACE_STYLE_USAGE(.BOTH.,#822);
#817=SURFACE_STYLE_USAGE(.BOTH.,#823);
#818=SURFACE_STYLE_USAGE(.BOTH.,#824);
#819=SURFACE_SIDE_STYLE('',(#825));
#820=SURFACE_SIDE_STYLE('',(#826));
#821=SURFACE_SIDE_STYLE('',(#827));
#822=SURFACE_SIDE_STYLE('',(#828));
#823=SURFACE_SIDE_STYLE('',(#829));
#824=SURFACE_SIDE_STYLE('',(#830));
#825=SURFACE_STYLE_FILL_AREA(#831);
#826=SURFACE_STYLE_FILL_AREA(#832);
#827=SURFACE_STYLE_FILL_AREA(#833);
#828=SURFACE_STYLE_FILL_AREA(#834);
#829=SURFACE_STYLE_FILL_AREA(#835);
#830=SURFACE_STYLE_FILL_AREA(#836);
#831=FILL_AREA_STYLE('',(#837));
#832=FILL_AREA_STYLE('',(#838));
#833=FILL_AREA_STYLE('',(#839));
#834=FILL_AREA_STYLE('',(#840));
#835=FILL_AREA_STYLE('',(#841));
#836=FILL_AREA_STYLE('',(#842));
#837=FILL_AREA_STYLE_COLOUR('',#843);
#838=FILL_AREA_STYLE_COLOUR('',#844);
#839=FILL_AREA_STYLE_COLOUR('',#845);
#840=FILL_AREA_STYLE_COLOUR('',#846);
#841=FILL_AREA_STYLE_COLOUR('',#847);
#842=FILL_AREA_STYLE_COLOUR('',#848);
#843=COLOUR_RGB('',0.768627450980392,0.886274509803922,0.952941176470588);
#844=COLOUR_RGB('',0.231372549019608,0.380392156862745,0.705882352941177);
#845=COLOUR_RGB('',0.647058823529412,0.647058823529412,0.647058823529412);
#846=COLOUR_RGB('',0.972549019607843,0.529411764705882,0.00392156862745098);
#847=COLOUR_RGB('',0.917647058823529,0.917647058823529,0.917647058823529);
#848=COLOUR_RGB('',0.372549019607843,0.654901960784314,0.23921568627451);
#849=MANIFOLD_SOLID_BREP('Part 5',#795);
#850=MANIFOLD_SOLID_BREP('Part 3',#796);
#851=MANIFOLD_SOLID_BREP('Part 2',#797);
#852=MANIFOLD_SOLID_BREP('Part 6',#798);
#853=MANIFOLD_SOLID_BREP('Part 4',#799);
#854=MANIFOLD_SOLID_BREP('Part 1',#800);
#855=SHAPE_DEFINITION_REPRESENTATION(#1399,#861);
#856=SHAPE_DEFINITION_REPRESENTATION(#1400,#862);
#857=SHAPE_DEFINITION_REPRESENTATION(#1401,#863);
#858=SHAPE_DEFINITION_REPRESENTATION(#1402,#864);
#859=SHAPE_DEFINITION_REPRESENTATION(#1403,#865);
#860=SHAPE_DEFINITION_REPRESENTATION(#1404,#866);
#861=SHAPE_REPRESENTATION('Part 5',(#867),#1369);
#862=SHAPE_REPRESENTATION('Part 3',(#874),#1370);
#863=SHAPE_REPRESENTATION('Part 2',(#880),#1371);
#864=SHAPE_REPRESENTATION('Part 6',(#900),#1372);
#865=SHAPE_REPRESENTATION('Part 4',(#907),#1373);
#866=SHAPE_REPRESENTATION('Part 1',(#913),#1374);
#867=AXIS2_PLACEMENT_3D('',#1137,#924,#925);
#868=AXIS2_PLACEMENT_3D('',#1138,#926,#927);
#869=AXIS2_PLACEMENT_3D('',#1147,#932,#933);
#870=AXIS2_PLACEMENT_3D('',#1153,#937,#938);
#871=AXIS2_PLACEMENT_3D('',#1159,#942,#943);
#872=AXIS2_PLACEMENT_3D('',#1162,#946,#947);
#873=AXIS2_PLACEMENT_3D('',#1163,#948,#949);
#874=AXIS2_PLACEMENT_3D('',#1164,#950,#951);
#875=AXIS2_PLACEMENT_3D('',#1165,#952,#953);
#876=AXIS2_PLACEMENT_3D('',#1166,#954,#955);
#877=AXIS2_PLACEMENT_3D('',#1168,#956,#957);
#878=AXIS2_PLACEMENT_3D('',#1170,#958,#959);
#879=AXIS2_PLACEMENT_3D('',#1171,#960,#961);
#880=AXIS2_PLACEMENT_3D('',#1172,#962,#963);
#881=AXIS2_PLACEMENT_3D('',#1173,#964,#965);
#882=AXIS2_PLACEMENT_3D('',#1182,#970,#971);
#883=AXIS2_PLACEMENT_3D('',#1188,#975,#976);
#884=AXIS2_PLACEMENT_3D('',#1194,#980,#981);
#885=AXIS2_PLACEMENT_3D('',#1200,#985,#986);
#886=AXIS2_PLACEMENT_3D('',#1206,#990,#991);
#887=AXIS2_PLACEMENT_3D('',#1212,#995,#996);
#888=AXIS2_PLACEMENT_3D('',#1218,#1000,#1001);
#889=AXIS2_PLACEMENT_3D('',#1224,#1005,#1006);
#890=AXIS2_PLACEMENT_3D('',#1230,#1010,#1011);
#891=AXIS2_PLACEMENT_3D('',#1236,#1015,#1016);
#892=AXIS2_PLACEMENT_3D('',#1242,#1020,#1021);
#893=AXIS2_PLACEMENT_3D('',#1248,#1025,#1026);
#894=AXIS2_PLACEMENT_3D('',#1254,#1030,#1031);
#895=AXIS2_PLACEMENT_3D('',#1260,#1035,#1036);
#896=AXIS2_PLACEMENT_3D('',#1266,#1040,#1041);
#897=AXIS2_PLACEMENT_3D('',#1272,#1045,#1046);
#898=AXIS2_PLACEMENT_3D('',#1275,#1049,#1050);
#899=AXIS2_PLACEMENT_3D('',#1276,#1051,#1052);
#900=AXIS2_PLACEMENT_3D('',#1277,#1053,#1054);
#901=AXIS2_PLACEMENT_3D('',#1278,#1055,#1056);
#902=AXIS2_PLACEMENT_3D('',#1287,#1061,#1062);
#903=AXIS2_PLACEMENT_3D('',#1293,#1066,#1067);
#904=AXIS2_PLACEMENT_3D('',#1299,#1071,#1072);
#905=AXIS2_PLACEMENT_3D('',#1302,#1075,#1076);
#906=AXIS2_PLACEMENT_3D('',#1303,#1077,#1078);
#907=AXIS2_PLACEMENT_3D('',#1304,#1079,#1080);
#908=AXIS2_PLACEMENT_3D('',#1305,#1081,#1082);
#909=AXIS2_PLACEMENT_3D('',#1306,#1083,#1084);
#910=AXIS2_PLACEMENT_3D('',#1308,#1085,#1086);
#911=AXIS2_PLACEMENT_3D('',#1310,#1087,#1088);
#912=AXIS2_PLACEMENT_3D('',#1311,#1089,#1090);
#913=AXIS2_PLACEMENT_3D('',#1312,#1091,#1092);
#914=AXIS2_PLACEMENT_3D('',#1313,#1093,#1094);
#915=AXIS2_PLACEMENT_3D('',#1322,#1099,#1100);
#916=AXIS2_PLACEMENT_3D('',#1328,#1104,#1105);
#917=AXIS2_PLACEMENT_3D('',#1334,#1109,#1110);
#918=AXIS2_PLACEMENT_3D('',#1340,#1114,#1115);
#919=AXIS2_PLACEMENT_3D('',#1346,#1119,#1120);
#920=AXIS2_PLACEMENT_3D('',#1352,#1124,#1125);
#921=AXIS2_PLACEMENT_3D('',#1358,#1129,#1130);
#922=AXIS2_PLACEMENT_3D('',#1361,#1133,#1134);
#923=AXIS2_PLACEMENT_3D('',#1362,#1135,#1136);
#924=DIRECTION('',(0.,0.,1.));
#925=DIRECTION('',(1.,0.,0.));
#926=DIRECTION('',(-0.919923168599633,0.392098665993154,0.));
#927=DIRECTION('',(-0.392098665993154,-0.919923168599633,0.));
#928=DIRECTION('',(0.392098665993154,0.919923168599633,0.));
#929=DIRECTION('',(0.,0.,-1.));
#930=DIRECTION('',(0.392098665993154,0.919923168599633,0.));
#931=DIRECTION('',(0.,0.,-1.));
#932=DIRECTION('',(0.358251523870279,-0.933625109797623,0.));
#933=DIRECTION('',(0.933625109797623,0.358251523870279,0.));
#934=DIRECTION('',(-0.933625109797623,-0.358251523870279,0.));
#935=DIRECTION('',(0.,0.,-1.));
#936=DIRECTION('',(-0.933625109797623,-0.358251523870279,0.));
#937=DIRECTION('',(0.0587219753080412,0.998274375918726,0.));
#938=DIRECTION('',(-0.998274375918726,0.0587219753080412,0.));
#939=DIRECTION('',(0.998274375918726,-0.0587219753080412,0.));
#940=DIRECTION('',(0.,0.,-1.));
#941=DIRECTION('',(0.998274375918726,-0.0587219753080412,0.));
#942=DIRECTION('',(-0.432120275044951,0.90181598338856,0.));
#943=DIRECTION('',(-0.90181598338856,-0.432120275044951,0.));
#944=DIRECTION('',(0.90181598338856,0.432120275044951,0.));
#945=DIRECTION('',(0.90181598338856,0.432120275044951,0.));
#946=DIRECTION('',(0.,0.,1.));
#947=DIRECTION('',(1.,0.,0.));
#948=DIRECTION('',(0.,0.,1.));
#949=DIRECTION('',(1.,0.,0.));
#950=DIRECTION('',(0.,0.,1.));
#951=DIRECTION('',(1.,0.,0.));
#952=DIRECTION('',(0.,0.,-1.));
#953=DIRECTION('',(-1.,0.,0.));
#954=DIRECTION('',(0.,0.,1.));
#955=DIRECTION('',(1.,0.,0.));
#956=DIRECTION('',(0.,0.,1.));
#957=DIRECTION('',(1.,0.,0.));
#958=DIRECTION('',(0.,0.,1.));
#959=DIRECTION('',(1.,0.,0.));
#960=DIRECTION('',(0.,0.,1.));
#961=DIRECTION('',(1.,0.,0.));
#962=DIRECTION('',(0.,0.,1.));
#963=DIRECTION('',(1.,0.,0.));
#964=DIRECTION('',(1.,0.,0.));
#965=DIRECTION('',(0.,0.,-1.));
#966=DIRECTION('',(0.,-1.,0.));
#967=DIRECTION('',(0.,0.,-1.));
#968=DIRECTION('',(0.,-1.,0.));
#969=DIRECTION('',(0.,0.,-1.));
#970=DIRECTION('',(0.839811921827918,-0.542877459428644,0.));
#971=DIRECTION('',(0.542877459428644,0.839811921827918,0.));
#972=DIRECTION('',(-0.542877459428644,-0.839811921827918,0.));
#973=DIRECTION('',(0.,0.,-1.));
#974=DIRECTION('',(-0.542877459428644,-0.839811921827918,0.));
#975=DIRECTION('',(0.,-1.,0.));
#976=DIRECTION('',(0.,0.,-1.));
#977=DIRECTION('',(-1.,0.,0.));
#978=DIRECTION('',(0.,0.,-1.));
#979=DIRECTION('',(-1.,0.,0.));
#980=DIRECTION('',(0.839811921827918,0.542877459428644,0.));
#981=DIRECTION('',(-0.542877459428645,0.839811921827918,0.));
#982=DIRECTION('',(0.542877459428644,-0.839811921827918,0.));
#983=DIRECTION('',(0.,0.,-1.));
#984=DIRECTION('',(0.542877459428644,-0.839811921827918,0.));
#985=DIRECTION('',(1.,0.,0.));
#986=DIRECTION('',(0.,0.,-1.));
#987=DIRECTION('',(0.,-1.,0.));
#988=DIRECTION('',(0.,0.,-1.));
#989=DIRECTION('',(0.,-1.,0.));
#990=DIRECTION('',(-0.83609840395521,0.54857949187292,0.));
#991=DIRECTION('',(-0.54857949187292,-0.83609840395521,0.));
#992=DIRECTION('',(0.54857949187292,0.83609840395521,0.));
#993=DIRECTION('',(0.,0.,-1.));
#994=DIRECTION('',(0.54857949187292,0.83609840395521,0.));
#995=DIRECTION('',(0.,1.,0.));
#996=DIRECTION('',(0.,0.,1.));
#997=DIRECTION('',(1.,0.,0.));
#998=DIRECTION('',(0.,0.,-1.));
#999=DIRECTION('',(1.,0.,0.));
#1000=DIRECTION('',(1.,0.,0.));
#1001=DIRECTION('',(0.,0.,-1.));
#1002=DIRECTION('',(0.,-1.,0.));
#1003=DIRECTION('',(0.,0.,-1.));
#1004=DIRECTION('',(0.,-1.,0.));
#1005=DIRECTION('',(0.50368457397875,-0.863887637332452,0.));
#1006=DIRECTION('',(0.863887637332452,0.50368457397875,0.));
#1007=DIRECTION('',(-0.863887637332452,-0.50368457397875,0.));
#1008=DIRECTION('',(0.,0.,-1.));
#1009=DIRECTION('',(-0.863887637332452,-0.50368457397875,0.));
#1010=DIRECTION('',(0.296636192759143,0.95499055971531,0.));
#1011=DIRECTION('',(-0.95499055971531,0.296636192759143,0.));
#1012=DIRECTION('',(0.95499055971531,-0.296636192759143,0.));
#1013=DIRECTION('',(0.,0.,-1.));
#1014=DIRECTION('',(0.95499055971531,-0.296636192759143,0.));
#1015=DIRECTION('',(-0.520838554855825,-0.853655199583354,0.));
#1016=DIRECTION('',(0.853655199583354,-0.520838554855825,0.));
#1017=DIRECTION('',(-0.853655199583354,0.520838554855825,0.));
#1018=DIRECTION('',(0.,0.,-1.));
#1019=DIRECTION('',(-0.853655199583354,0.520838554855825,0.));
#1020=DIRECTION('',(0.518622871903858,-0.855003109197969,0.));
#1021=DIRECTION('',(0.855003109197969,0.518622871903858,0.));
#1022=DIRECTION('',(-0.855003109197969,-0.518622871903858,0.));
#1023=DIRECTION('',(0.,0.,-1.));
#1024=DIRECTION('',(-0.855003109197969,-0.518622871903858,0.));
#1025=DIRECTION('',(-0.294578354701373,0.955627329528322,0.));
#1026=DIRECTION('',(-0.955627329528322,-0.294578354701373,0.));
#1027=DIRECTION('',(0.955627329528322,0.294578354701373,0.));
#1028=DIRECTION('',(0.,0.,-1.));
#1029=DIRECTION('',(0.955627329528322,0.294578354701373,0.));
#1030=DIRECTION('',(-0.503684573978749,-0.863887637332452,0.));
#1031=DIRECTION('',(0.863887637332452,-0.503684573978749,0.));
#1032=DIRECTION('',(-0.863887637332452,0.503684573978749,0.));
#1033=DIRECTION('',(0.,0.,-1.));
#1034=DIRECTION('',(-0.863887637332452,0.503684573978749,0.));
#1035=DIRECTION('',(1.,1.38387905720626E-16,0.));
#1036=DIRECTION('',(-1.38387905720626E-16,1.,0.));
#1037=DIRECTION('',(1.38387905720626E-16,-1.,0.));
#1038=DIRECTION('',(0.,0.,-1.));
#1039=DIRECTION('',(1.38387905720626E-16,-1.,0.));
#1040=DIRECTION('',(0.,-1.,0.));
#1041=DIRECTION('',(0.,0.,-1.));
#1042=DIRECTION('',(-1.,0.,0.));
#1043=DIRECTION('',(0.,0.,-1.));
#1044=DIRECTION('',(-1.,0.,0.));
#1045=DIRECTION('',(-0.812976153862991,-0.582296980285951,0.));
#1046=DIRECTION('',(0.582296980285951,-0.812976153862992,0.));
#1047=DIRECTION('',(-0.582296980285951,0.812976153862992,0.));
#1048=DIRECTION('',(-0.582296980285951,0.812976153862992,0.));
#1049=DIRECTION('',(0.,0.,1.));
#1050=DIRECTION('',(1.,0.,0.));
#1051=DIRECTION('',(0.,0.,1.));
#1052=DIRECTION('',(1.,0.,0.));
#1053=DIRECTION('',(0.,0.,1.));
#1054=DIRECTION('',(1.,0.,0.));
#1055=DIRECTION('',(0.358251523870279,0.933625109797623,0.));
#1056=DIRECTION('',(-0.933625109797623,0.358251523870279,0.));
#1057=DIRECTION('',(0.933625109797623,-0.358251523870279,0.));
#1058=DIRECTION('',(0.,0.,-1.));
#1059=DIRECTION('',(0.933625109797623,-0.358251523870279,0.));
#1060=DIRECTION('',(0.,0.,-1.));
#1061=DIRECTION('',(-0.919923168599633,-0.392098665993154,0.));
#1062=DIRECTION('',(0.392098665993154,-0.919923168599633,0.));
#1063=DIRECTION('',(-0.392098665993154,0.919923168599633,0.));
#1064=DIRECTION('',(0.,0.,-1.));
#1065=DIRECTION('',(-0.392098665993154,0.919923168599633,0.));
#1066=DIRECTION('',(-0.432120275044951,-0.90181598338856,0.));
#1067=DIRECTION('',(0.90181598338856,-0.432120275044951,0.));
#1068=DIRECTION('',(-0.90181598338856,0.432120275044951,0.));
#1069=DIRECTION('',(0.,0.,-1.));
#1070=DIRECTION('',(-0.90181598338856,0.432120275044951,0.));
#1071=DIRECTION('',(0.0587219753080413,-0.998274375918726,0.));
#1072=DIRECTION('',(0.998274375918726,0.0587219753080413,0.));
#1073=DIRECTION('',(-0.998274375918726,-0.0587219753080413,0.));
#1074=DIRECTION('',(-0.998274375918726,-0.0587219753080413,0.));
#1075=DIRECTION('',(0.,0.,1.));
#1076=DIRECTION('',(1.,0.,0.));
#1077=DIRECTION('',(0.,0.,1.));
#1078=DIRECTION('',(1.,0.,0.));
#1079=DIRECTION('',(0.,0.,1.));
#1080=DIRECTION('',(1.,0.,0.));
#1081=DIRECTION('',(0.,0.,-1.));
#1082=DIRECTION('',(-1.,0.,0.));
#1083=DIRECTION('',(0.,0.,-1.));
#1084=DIRECTION('',(1.,0.,0.));
#1085=DIRECTION('',(0.,0.,-1.));
#1086=DIRECTION('',(1.,0.,0.));
#1087=DIRECTION('',(0.,0.,1.));
#1088=DIRECTION('',(1.,0.,0.));
#1089=DIRECTION('',(0.,0.,1.));
#1090=DIRECTION('',(1.,0.,0.));
#1091=DIRECTION('',(0.,0.,1.));
#1092=DIRECTION('',(1.,0.,0.));
#1093=DIRECTION('',(0.,-1.,0.));
#1094=DIRECTION('',(0.,0.,-1.));
#1095=DIRECTION('',(1.,0.,0.));
#1096=DIRECTION('',(0.,0.,1.));
#1097=DIRECTION('',(1.,0.,0.));
#1098=DIRECTION('',(0.,0.,1.));
#1099=DIRECTION('',(1.,0.,0.));
#1100=DIRECTION('',(0.,0.,-1.));
#1101=DIRECTION('',(0.,1.,0.));
#1102=DIRECTION('',(0.,1.,0.));
#1103=DIRECTION('',(0.,0.,1.));
#1104=DIRECTION('',(0.,-1.,0.));
#1105=DIRECTION('',(0.,0.,-1.));
#1106=DIRECTION('',(1.,0.,0.));
#1107=DIRECTION('',(1.,0.,0.));
#1108=DIRECTION('',(0.,0.,1.));
#1109=DIRECTION('',(-1.,0.,0.));
#1110=DIRECTION('',(0.,0.,1.));
#1111=DIRECTION('',(0.,-1.,0.));
#1112=DIRECTION('',(0.,-1.,0.));
#1113=DIRECTION('',(0.,0.,1.));
#1114=DIRECTION('',(0.,-1.,0.));
#1115=DIRECTION('',(0.,0.,-1.));
#1116=DIRECTION('',(1.,0.,0.));
#1117=DIRECTION('',(1.,0.,0.));
#1118=DIRECTION('',(0.,0.,1.));
#1119=DIRECTION('',(-1.,0.,0.));
#1120=DIRECTION('',(0.,0.,1.));
#1121=DIRECTION('',(0.,-1.,0.));
#1122=DIRECTION('',(0.,-1.,0.));
#1123=DIRECTION('',(0.,0.,1.));
#1124=DIRECTION('',(0.,-1.,0.));
#1125=DIRECTION('',(0.,0.,-1.));
#1126=DIRECTION('',(1.,0.,0.));
#1127=DIRECTION('',(1.,0.,0.));
#1128=DIRECTION('',(0.,0.,1.));
#1129=DIRECTION('',(-1.,0.,0.));
#1130=DIRECTION('',(0.,0.,1.));
#1131=DIRECTION('',(0.,-1.,0.));
#1132=DIRECTION('',(0.,-1.,0.));
#1133=DIRECTION('',(0.,0.,1.));
#1134=DIRECTION('',(1.,0.,0.));
#1135=DIRECTION('',(0.,0.,1.));
#1136=DIRECTION('',(1.,0.,0.));
#1137=CARTESIAN_POINT('',(0.,0.,0.));
#1138=CARTESIAN_POINT('',(0.00396778690628707,0.00095395918469876,0.0015));
#1139=CARTESIAN_POINT('',(0.00396778690628707,0.00095395918469876,0.));
#1140=CARTESIAN_POINT('',(0.00310218753293156,-0.00107686873525381,0.));
#1141=CARTESIAN_POINT('',(0.00483338627964258,0.00298478710465133,0.));
#1142=CARTESIAN_POINT('',(0.00483338627964258,0.00298478710465133,0.0015));
#1143=CARTESIAN_POINT('',(0.00483338627964258,0.00298478710465133,0.0015));
#1144=CARTESIAN_POINT('',(0.00396778690628707,0.00095395918469876,0.0015));
#1145=CARTESIAN_POINT('',(0.00310218753293156,-0.00107686873525381,0.0015));
#1146=CARTESIAN_POINT('',(0.00310218753293156,-0.00107686873525381,0.0015));
#1147=CARTESIAN_POINT('',(-0.00375601695850492,-0.000311146955937147,0.0015));
#1148=CARTESIAN_POINT('',(-0.00375601695850492,-0.000311146955937147,0.));
#1149=CARTESIAN_POINT('',(-0.0123454201966524,-0.00360708101652562,0.));
#1150=CARTESIAN_POINT('',(-0.0123454201966524,-0.00360708101652562,0.0015));
#1151=CARTESIAN_POINT('',(-0.0123454201966524,-0.00360708101652562,0.0015));
#1152=CARTESIAN_POINT('',(-0.00375601695850492,-0.000311146955937147,0.0015));
#1153=CARTESIAN_POINT('',(-0.00781767256557941,-0.00387341890018434,0.0015));
#1154=CARTESIAN_POINT('',(-0.00781767256557941,-0.00387341890018434,0.));
#1155=CARTESIAN_POINT('',(-0.00328992493450642,-0.00413975678384304,0.));
#1156=CARTESIAN_POINT('',(-0.00328992493450642,-0.00413975678384304,0.0015));
#1157=CARTESIAN_POINT('',(-0.00328992493450642,-0.00413975678384304,0.0015));
#1158=CARTESIAN_POINT('',(-0.00781767256557941,-0.00387341890018434,0.0015));
#1159=CARTESIAN_POINT('',(-9.3868700787425E-5,-0.00260831275954842,0.0015));
#1160=CARTESIAN_POINT('',(-9.3868700787425E-5,-0.00260831275954842,0.));
#1161=CARTESIAN_POINT('',(-9.3868700787425E-5,-0.00260831275954842,0.0015));
#1162=CARTESIAN_POINT('',(0.0416442339729891,0.00660999659138171,0.0015));
#1163=CARTESIAN_POINT('',(0.0416442339729891,0.00660999659138171,0.));
#1164=CARTESIAN_POINT('',(0.,0.,0.));
#1165=CARTESIAN_POINT('',(0.00421088104871513,0.0129627574503325,0.0015));
#1166=CARTESIAN_POINT('',(0.00421088104871513,0.0129627574503325,0.0015));
#1167=CARTESIAN_POINT('',(0.00565302473852521,0.0129627574503325,0.0015));
#1168=CARTESIAN_POINT('',(0.00421088104871513,0.0129627574503325,0.));
#1169=CARTESIAN_POINT('',(0.00565302473852521,0.0129627574503325,0.));
#1170=CARTESIAN_POINT('',(0.0416442339729891,0.00660999659138171,0.0015));
#1171=CARTESIAN_POINT('',(0.0416442339729891,0.00660999659138171,0.));
#1172=CARTESIAN_POINT('',(0.,0.,0.));
#1173=CARTESIAN_POINT('',(0.0153587156178173,0.0126665481657519,0.0015));
#1174=CARTESIAN_POINT('',(0.0153587156178173,0.0126665481657519,0.));
#1175=CARTESIAN_POINT('',(0.0153587156178173,0.0148243952513957,0.));
#1176=CARTESIAN_POINT('',(0.0153587156178173,0.0105087010801081,0.));
#1177=CARTESIAN_POINT('',(0.0153587156178173,0.0105087010801081,0.0015));
#1178=CARTESIAN_POINT('',(0.0153587156178173,0.0105087010801081,0.0015));
#1179=CARTESIAN_POINT('',(0.0153587156178173,0.0126665481657519,0.0015));
#1180=CARTESIAN_POINT('',(0.0153587156178173,0.0148243952513957,0.0015));
#1181=CARTESIAN_POINT('',(0.0153587156178173,0.0148243952513957,0.0015));
#1182=CARTESIAN_POINT('',(0.0150658669039628,0.0100556746430816,0.0015));
#1183=CARTESIAN_POINT('',(0.0150658669039628,0.0100556746430816,0.));
#1184=CARTESIAN_POINT('',(0.0147730181901084,0.00960264820605516,0.));
#1185=CARTESIAN_POINT('',(0.0147730181901084,0.00960264820605516,0.0015));
#1186=CARTESIAN_POINT('',(0.0147730181901084,0.00960264820605516,0.0015));
#1187=CARTESIAN_POINT('',(0.0150658669039628,0.0100556746430816,0.0015));
#1188=CARTESIAN_POINT('',(0.0131354292546921,0.00960264820605516,0.0015));
#1189=CARTESIAN_POINT('',(0.0131354292546921,0.00960264820605516,0.));
#1190=CARTESIAN_POINT('',(0.0082226624484433,0.00960264820605516,0.));
#1191=CARTESIAN_POINT('',(0.0082226624484433,0.00960264820605516,0.0015));
#1192=CARTESIAN_POINT('',(0.0082226624484433,0.00960264820605516,0.0015));
#1193=CARTESIAN_POINT('',(0.0131354292546921,0.00960264820605516,0.0015));
#1194=CARTESIAN_POINT('',(0.00792981373458884,0.0100556746430816,0.0015));
#1195=CARTESIAN_POINT('',(0.00792981373458884,0.0100556746430816,0.));
#1196=CARTESIAN_POINT('',(0.00763696502073437,0.0105087010801081,0.));
#1197=CARTESIAN_POINT('',(0.00763696502073437,0.0105087010801081,0.0015));
#1198=CARTESIAN_POINT('',(0.00763696502073437,0.0105087010801081,0.0015));
#1199=CARTESIAN_POINT('',(0.00792981373458884,0.0100556746430816,0.0015));
#1200=CARTESIAN_POINT('',(0.00763696502073437,0.0126665481657519,0.0015));
#1201=CARTESIAN_POINT('',(0.00763696502073437,0.0126665481657519,0.));
#1202=CARTESIAN_POINT('',(0.00763696502073437,0.0148243952513957,0.));
#1203=CARTESIAN_POINT('',(0.00763696502073437,0.0148243952513957,0.0015));
#1204=CARTESIAN_POINT('',(0.00763696502073437,0.0148243952513957,0.0015));
#1205=CARTESIAN_POINT('',(0.00763696502073437,0.0126665481657519,0.0015));
#1206=CARTESIAN_POINT('',(0.00592392303472475,0.0122135217287254,0.0015));
#1207=CARTESIAN_POINT('',(0.00592392303472475,0.0122135217287254,0.));
#1208=CARTESIAN_POINT('',(0.00421088104871513,0.00960264820605516,0.));
#1209=CARTESIAN_POINT('',(0.00421088104871513,0.00960264820605516,0.0015));
#1210=CARTESIAN_POINT('',(0.00421088104871513,0.00960264820605516,0.0015));
#1211=CARTESIAN_POINT('',(0.00592392303472475,0.0122135217287254,0.0015));
#1212=CARTESIAN_POINT('',(0.00592392303472475,0.00960264820605516,0.0015));
#1213=CARTESIAN_POINT('',(0.00592392303472475,0.00960264820605516,0.));
#1214=CARTESIAN_POINT('',(0.00763696502073437,0.00960264820605516,0.));
#1215=CARTESIAN_POINT('',(0.00763696502073437,0.00960264820605516,0.0015));
#1216=CARTESIAN_POINT('',(0.00763696502073437,0.00960264820605516,0.0015));
#1217=CARTESIAN_POINT('',(0.00592392303472475,0.00960264820605516,0.0015));
#1218=CARTESIAN_POINT('',(0.00763696502073437,-0.00293259981770724,0.0015));
#1219=CARTESIAN_POINT('',(0.00763696502073437,-0.00293259981770724,0.));
#1220=CARTESIAN_POINT('',(0.00763696502073437,-0.0154678478414697,0.));
#1221=CARTESIAN_POINT('',(0.00763696502073437,-0.0154678478414697,0.0015));
#1222=CARTESIAN_POINT('',(0.00763696502073437,-0.0154678478414697,0.0015));
#1223=CARTESIAN_POINT('',(0.00763696502073437,-0.00293259981770724,0.0015));
#1224=CARTESIAN_POINT('',(0.00381848251036718,-0.0176941914692341,0.0015));
#1225=CARTESIAN_POINT('',(0.00381848251036718,-0.0176941914692341,0.));
#1226=CARTESIAN_POINT('',(0.,-0.0199205350969986,0.));
#1227=CARTESIAN_POINT('',(0.,-0.0199205350969986,0.0015));
#1228=CARTESIAN_POINT('',(0.,-0.0199205350969986,0.0015));
#1229=CARTESIAN_POINT('',(0.00381848251036718,-0.0176941914692341,0.0015));
#1230=CARTESIAN_POINT('',(0.00205309056209438,-0.0205582596917956,0.0015));
#1231=CARTESIAN_POINT('',(0.00205309056209438,-0.0205582596917956,0.));
#1232=CARTESIAN_POINT('',(0.00410618112418876,-0.0211959842865926,0.));
#1233=CARTESIAN_POINT('',(0.00410618112418876,-0.0211959842865926,0.0015));
#1234=CARTESIAN_POINT('',(0.00410618112418876,-0.0211959842865926,0.0015));
#1235=CARTESIAN_POINT('',(0.00205309056209438,-0.0205582596917956,0.0015));
#1236=CARTESIAN_POINT('',(0.00778658213740206,-0.0234414983371689,0.0015));
#1237=CARTESIAN_POINT('',(0.00778658213740206,-0.0234414983371689,0.));
#1238=CARTESIAN_POINT('',(0.0114669831506154,-0.0256870123877452,0.));
#1239=CARTESIAN_POINT('',(0.0114669831506154,-0.0256870123877452,0.0015));
#1240=CARTESIAN_POINT('',(0.0114669831506154,-0.0256870123877452,0.0015));
#1241=CARTESIAN_POINT('',(0.00778658213740206,-0.0234414983371689,0.0015));
#1242=CARTESIAN_POINT('',(0.0151754889180254,-0.0234375282737395,0.0015));
#1243=CARTESIAN_POINT('',(0.0151754889180254,-0.0234375282737395,0.));
#1244=CARTESIAN_POINT('',(0.0188839946854355,-0.0211880441597339,0.));
#1245=CARTESIAN_POINT('',(0.0188839946854355,-0.0211880441597339,0.0015));
#1246=CARTESIAN_POINT('',(0.0188839946854355,-0.0211880441597339,0.0015));
#1247=CARTESIAN_POINT('',(0.0151754889180254,-0.0234375282737395,0.0015));
#1248=CARTESIAN_POINT('',(0.0209400030574015,-0.0205542661745805,0.0015));
#1249=CARTESIAN_POINT('',(0.0209400030574015,-0.0205542661745805,0.));
#1250=CARTESIAN_POINT('',(0.0229960114293673,-0.0199204881894272,0.));
#1251=CARTESIAN_POINT('',(0.0229960114293673,-0.0199204881894272,0.0015));
#1252=CARTESIAN_POINT('',(0.0229960114293673,-0.0199204881894272,0.0015));
#1253=CARTESIAN_POINT('',(0.0209400030574015,-0.0205542661745805,0.0015));
#1254=CARTESIAN_POINT('',(0.0191775289190002,-0.0176941445616627,0.0015));
#1255=CARTESIAN_POINT('',(0.0191775289190002,-0.0176941445616627,0.));
#1256=CARTESIAN_POINT('',(0.0153590464086329,-0.0154678009338982,0.));
#1257=CARTESIAN_POINT('',(0.0153590464086329,-0.0154678009338982,0.0015));
#1258=CARTESIAN_POINT('',(0.0153590464086329,-0.0154678009338982,0.0015));
#1259=CARTESIAN_POINT('',(0.0191775289190002,-0.0176941445616627,0.0015));
#1260=CARTESIAN_POINT('',(0.0153590464086329,-0.00293257636392154,0.0015));
#1261=CARTESIAN_POINT('',(0.0153590464086329,-0.00293257636392154,0.));
#1262=CARTESIAN_POINT('',(0.0153590464086329,0.00960264820605517,0.));
#1263=CARTESIAN_POINT('',(0.0153590464086329,0.00960264820605517,0.0015));
#1264=CARTESIAN_POINT('',(0.0153590464086329,0.00960264820605517,0.0015));
#1265=CARTESIAN_POINT('',(0.0153590464086329,-0.00293257636392154,0.0015));
#1266=CARTESIAN_POINT('',(0.0172289281984168,0.00960264820605517,0.0015));
#1267=CARTESIAN_POINT('',(0.0172289281984168,0.00960264820605517,0.));
#1268=CARTESIAN_POINT('',(0.0190988099882006,0.00960264820605517,0.));
#1269=CARTESIAN_POINT('',(0.0190988099882006,0.00960264820605517,0.0015));
#1270=CARTESIAN_POINT('',(0.0190988099882006,0.00960264820605517,0.0015));
#1271=CARTESIAN_POINT('',(0.0172289281984168,0.00960264820605517,0.0015));
#1272=CARTESIAN_POINT('',(0.017228762803009,0.0122135217287254,0.0015));
#1273=CARTESIAN_POINT('',(0.017228762803009,0.0122135217287254,0.));
#1274=CARTESIAN_POINT('',(0.017228762803009,0.0122135217287254,0.0015));
#1275=CARTESIAN_POINT('',(0.0416442339729891,0.00660999659138171,0.0015));
#1276=CARTESIAN_POINT('',(0.0416442339729891,0.00660999659138171,0.));
#1277=CARTESIAN_POINT('',(0.,0.,0.));
#1278=CARTESIAN_POINT('',(0.0267516975970566,-0.000311146955937146,0.0015));
#1279=CARTESIAN_POINT('',(0.0267516975970566,-0.000311146955937146,0.));
#1280=CARTESIAN_POINT('',(0.0181622943589091,0.00298478710465133,0.));
#1281=CARTESIAN_POINT('',(0.0353411008352041,-0.00360708101652562,0.));
#1282=CARTESIAN_POINT('',(0.0181622943589091,0.00298478710465133,0.0015));
#1283=CARTESIAN_POINT('',(0.0181622943589091,0.00298478710465133,0.0015));
#1284=CARTESIAN_POINT('',(0.0267516975970566,-0.000311146955937146,0.0015));
#1285=CARTESIAN_POINT('',(0.0353411008352041,-0.00360708101652562,0.0015));
#1286=CARTESIAN_POINT('',(0.0353411008352041,-0.00360708101652562,0.0015));
#1287=CARTESIAN_POINT('',(0.0190278937322646,0.000953959184698761,0.0015));
#1288=CARTESIAN_POINT('',(0.0190278937322646,0.000953959184698761,0.));
#1289=CARTESIAN_POINT('',(0.0198934931056201,-0.00107686873525381,0.));
#1290=CARTESIAN_POINT('',(0.0198934931056201,-0.00107686873525381,0.0015));
#1291=CARTESIAN_POINT('',(0.0198934931056201,-0.00107686873525381,0.0015));
#1292=CARTESIAN_POINT('',(0.0190278937322646,0.000953959184698761,0.0015));
#1293=CARTESIAN_POINT('',(0.0230895493393391,-0.00260831275954842,0.0015));
#1294=CARTESIAN_POINT('',(0.0230895493393391,-0.00260831275954842,0.));
#1295=CARTESIAN_POINT('',(0.0262856055730581,-0.00413975678384304,0.));
#1296=CARTESIAN_POINT('',(0.0262856055730581,-0.00413975678384304,0.0015));
#1297=CARTESIAN_POINT('',(0.0262856055730581,-0.00413975678384304,0.0015));
#1298=CARTESIAN_POINT('',(0.0230895493393391,-0.00260831275954842,0.0015));
#1299=CARTESIAN_POINT('',(0.0308133532041311,-0.00387341890018433,0.0015));
#1300=CARTESIAN_POINT('',(0.0308133532041311,-0.00387341890018433,0.));
#1301=CARTESIAN_POINT('',(0.0308133532041311,-0.00387341890018433,0.0015));
#1302=CARTESIAN_POINT('',(0.0416442339729891,0.00660999659138171,0.0015));
#1303=CARTESIAN_POINT('',(0.0416442339729891,0.00660999659138171,0.));
#1304=CARTESIAN_POINT('',(0.,0.,0.));
#1305=CARTESIAN_POINT('',(0.018628712058183,0.0134302509183108,0.0015));
#1306=CARTESIAN_POINT('',(0.018628712058183,0.0134302509183108,0.0015));
#1307=CARTESIAN_POINT('',(0.0200708557479931,0.0134302509183108,0.0015));
#1308=CARTESIAN_POINT('',(0.018628712058183,0.0134302509183108,0.));
#1309=CARTESIAN_POINT('',(0.0200708557479931,0.0134302509183108,0.));
#1310=CARTESIAN_POINT('',(0.0416442339729891,0.00660999659138171,0.0015));
#1311=CARTESIAN_POINT('',(0.0416442339729891,0.00660999659138171,0.));
#1312=CARTESIAN_POINT('',(0.,0.,0.));
#1313=CARTESIAN_POINT('',(0.0316228403192759,0.0311153134931616,-0.00092));
#1314=CARTESIAN_POINT('',(0.0316228403192759,0.0311153134931616,0.));
#1315=CARTESIAN_POINT('',(0.0164978403192759,0.0311153134931616,0.));
#1316=CARTESIAN_POINT('',(0.0467478403192758,0.0311153134931616,0.));
#1317=CARTESIAN_POINT('',(0.0467478403192758,0.0311153134931616,-0.00092));
#1318=CARTESIAN_POINT('',(0.0467478403192758,0.0311153134931616,-0.00092));
#1319=CARTESIAN_POINT('',(0.0316228403192759,0.0311153134931616,-0.00092));
#1320=CARTESIAN_POINT('',(0.0164978403192759,0.0311153134931616,-0.00092));
#1321=CARTESIAN_POINT('',(0.0164978403192759,0.0311153134931616,-0.00092));
#1322=CARTESIAN_POINT('',(0.0164978403192759,0.0301153134931616,-0.00092));
#1323=CARTESIAN_POINT('',(0.0164978403192759,0.0301153134931616,0.));
#1324=CARTESIAN_POINT('',(0.0164978403192759,0.0291153134931616,0.));
#1325=CARTESIAN_POINT('',(0.0164978403192759,0.0301153134931616,-0.00092));
#1326=CARTESIAN_POINT('',(0.0164978403192759,0.0291153134931616,-0.00092));
#1327=CARTESIAN_POINT('',(0.0164978403192759,0.0291153134931616,-0.00092));
#1328=CARTESIAN_POINT('',(0.0139978403192758,0.0291153134931616,-0.00092));
#1329=CARTESIAN_POINT('',(0.0139978403192758,0.0291153134931616,0.));
#1330=CARTESIAN_POINT('',(0.00649784031927585,0.0291153134931616,0.));
#1331=CARTESIAN_POINT('',(0.0139978403192758,0.0291153134931616,-0.00092));
#1332=CARTESIAN_POINT('',(0.00649784031927585,0.0291153134931616,-0.00092));
#1333=CARTESIAN_POINT('',(0.00649784031927585,0.0291153134931616,-0.00092));
#1334=CARTESIAN_POINT('',(0.00649784031927585,0.0301153134931616,-0.00092));
#1335=CARTESIAN_POINT('',(0.00649784031927585,0.0301153134931616,0.));
#1336=CARTESIAN_POINT('',(0.00649784031927585,0.0311153134931616,0.));
#1337=CARTESIAN_POINT('',(0.00649784031927585,0.0301153134931616,-0.00092));
#1338=CARTESIAN_POINT('',(0.00649784031927585,0.0311153134931616,-0.00092));
#1339=CARTESIAN_POINT('',(0.00649784031927585,0.0311153134931616,-0.00092));
#1340=CARTESIAN_POINT('',(-0.00862715968072415,0.0311153134931616,-0.00092));
#1341=CARTESIAN_POINT('',(-0.00862715968072415,0.0311153134931616,0.));
#1342=CARTESIAN_POINT('',(-0.0237521596807241,0.0311153134931616,0.));
#1343=CARTESIAN_POINT('',(-0.00862715968072415,0.0311153134931616,-0.00092));
#1344=CARTESIAN_POINT('',(-0.0237521596807241,0.0311153134931616,-0.00092));
#1345=CARTESIAN_POINT('',(-0.0237521596807241,0.0311153134931616,-0.00092));
#1346=CARTESIAN_POINT('',(-0.0237521596807241,0.00240031349316155,-0.00092));
#1347=CARTESIAN_POINT('',(-0.0237521596807241,0.00240031349316155,0.));
#1348=CARTESIAN_POINT('',(-0.0237521596807241,-0.0263146865068385,0.));
#1349=CARTESIAN_POINT('',(-0.0237521596807241,0.00240031349316155,-0.00092));
#1350=CARTESIAN_POINT('',(-0.0237521596807241,-0.0263146865068385,-0.00092));
#1351=CARTESIAN_POINT('',(-0.0237521596807241,-0.0263146865068385,-0.00092));
#1352=CARTESIAN_POINT('',(0.0114978403192758,-0.0263146865068385,-0.00092));
#1353=CARTESIAN_POINT('',(0.0114978403192758,-0.0263146865068385,0.));
#1354=CARTESIAN_POINT('',(0.0467478403192759,-0.0263146865068385,0.));
#1355=CARTESIAN_POINT('',(0.0114978403192758,-0.0263146865068385,-0.00092));
#1356=CARTESIAN_POINT('',(0.0467478403192759,-0.0263146865068385,-0.00092));
#1357=CARTESIAN_POINT('',(0.0467478403192759,-0.0263146865068385,-0.00092));
#1358=CARTESIAN_POINT('',(0.0467478403192758,0.00240031349316156,-0.00092));
#1359=CARTESIAN_POINT('',(0.0467478403192758,0.00240031349316156,0.));
#1360=CARTESIAN_POINT('',(0.0467478403192758,0.00240031349316156,-0.00092));
#1361=CARTESIAN_POINT('',(0.0416442339729891,0.00660999659138171,-0.00092));
#1362=CARTESIAN_POINT('',(0.0416442339729891,0.00660999659138171,0.));
#1363=MECHANICAL_DESIGN_GEOMETRIC_PRESENTATION_REPRESENTATION('',(#801),
#1369);
#1364=MECHANICAL_DESIGN_GEOMETRIC_PRESENTATION_REPRESENTATION('',(#802),
#1370);
#1365=MECHANICAL_DESIGN_GEOMETRIC_PRESENTATION_REPRESENTATION('',(#803),
#1371);
#1366=MECHANICAL_DESIGN_GEOMETRIC_PRESENTATION_REPRESENTATION('',(#804),
#1372);
#1367=MECHANICAL_DESIGN_GEOMETRIC_PRESENTATION_REPRESENTATION('',(#805),
#1373);
#1368=MECHANICAL_DESIGN_GEOMETRIC_PRESENTATION_REPRESENTATION('',(#806),
#1374);
#1369=(
GEOMETRIC_REPRESENTATION_CONTEXT(3)
GLOBAL_UNCERTAINTY_ASSIGNED_CONTEXT((#1375))
GLOBAL_UNIT_ASSIGNED_CONTEXT((#1393,#1387,#1381))
REPRESENTATION_CONTEXT('Part 5','TOP_LEVEL_ASSEMBLY_PART')
);
#1370=(
GEOMETRIC_REPRESENTATION_CONTEXT(3)
GLOBAL_UNCERTAINTY_ASSIGNED_CONTEXT((#1376))
GLOBAL_UNIT_ASSIGNED_CONTEXT((#1394,#1388,#1382))
REPRESENTATION_CONTEXT('Part 3','TOP_LEVEL_ASSEMBLY_PART')
);
#1371=(
GEOMETRIC_REPRESENTATION_CONTEXT(3)
GLOBAL_UNCERTAINTY_ASSIGNED_CONTEXT((#1377))
GLOBAL_UNIT_ASSIGNED_CONTEXT((#1395,#1389,#1383))
REPRESENTATION_CONTEXT('Part 2','TOP_LEVEL_ASSEMBLY_PART')
);
#1372=(
GEOMETRIC_REPRESENTATION_CONTEXT(3)
GLOBAL_UNCERTAINTY_ASSIGNED_CONTEXT((#1378))
GLOBAL_UNIT_ASSIGNED_CONTEXT((#1396,#1390,#1384))
REPRESENTATION_CONTEXT('Part 6','TOP_LEVEL_ASSEMBLY_PART')
);
#1373=(
GEOMETRIC_REPRESENTATION_CONTEXT(3)
GLOBAL_UNCERTAINTY_ASSIGNED_CONTEXT((#1379))
GLOBAL_UNIT_ASSIGNED_CONTEXT((#1397,#1391,#1385))
REPRESENTATION_CONTEXT('Part 4','TOP_LEVEL_ASSEMBLY_PART')
);
#1374=(
GEOMETRIC_REPRESENTATION_CONTEXT(3)
GLOBAL_UNCERTAINTY_ASSIGNED_CONTEXT((#1380))
GLOBAL_UNIT_ASSIGNED_CONTEXT((#1398,#1392,#1386))
REPRESENTATION_CONTEXT('Part 1','TOP_LEVEL_ASSEMBLY_PART')
);
#1375=UNCERTAINTY_MEASURE_WITH_UNIT(LENGTH_MEASURE(1.E-8),#1393,
'DISTANCE_ACCURACY_VALUE','Maximum Tolerance applied to model');
#1376=UNCERTAINTY_MEASURE_WITH_UNIT(LENGTH_MEASURE(1.E-8),#1394,
'DISTANCE_ACCURACY_VALUE','Maximum Tolerance applied to model');
#1377=UNCERTAINTY_MEASURE_WITH_UNIT(LENGTH_MEASURE(2.E-7),#1395,
'DISTANCE_ACCURACY_VALUE','Maximum Tolerance applied to model');
#1378=UNCERTAINTY_MEASURE_WITH_UNIT(LENGTH_MEASURE(1.E-8),#1396,
'DISTANCE_ACCURACY_VALUE','Maximum Tolerance applied to model');
#1379=UNCERTAINTY_MEASURE_WITH_UNIT(LENGTH_MEASURE(1.E-8),#1397,
'DISTANCE_ACCURACY_VALUE','Maximum Tolerance applied to model');
#1380=UNCERTAINTY_MEASURE_WITH_UNIT(LENGTH_MEASURE(1.E-8),#1398,
'DISTANCE_ACCURACY_VALUE','Maximum Tolerance applied to model');
#1381=(
NAMED_UNIT(*)
SI_UNIT($,.STERADIAN.)
SOLID_ANGLE_UNIT()
);
#1382=(
NAMED_UNIT(*)
SI_UNIT($,.STERADIAN.)
SOLID_ANGLE_UNIT()
);
#1383=(
NAMED_UNIT(*)
SI_UNIT($,.STERADIAN.)
SOLID_ANGLE_UNIT()
);
#1384=(
NAMED_UNIT(*)
SI_UNIT($,.STERADIAN.)
SOLID_ANGLE_UNIT()
);
#1385=(
NAMED_UNIT(*)
SI_UNIT($,.STERADIAN.)
SOLID_ANGLE_UNIT()
);
#1386=(
NAMED_UNIT(*)
SI_UNIT($,.STERADIAN.)
SOLID_ANGLE_UNIT()
);
#1387=(
NAMED_UNIT(*)
PLANE_ANGLE_UNIT()
SI_UNIT($,.RADIAN.)
);
#1388=(
NAMED_UNIT(*)
PLANE_ANGLE_UNIT()
SI_UNIT($,.RADIAN.)
);
#1389=(
NAMED_UNIT(*)
PLANE_ANGLE_UNIT()
SI_UNIT($,.RADIAN.)
);
#1390=(
NAMED_UNIT(*)
PLANE_ANGLE_UNIT()
SI_UNIT($,.RADIAN.)
);
#1391=(
NAMED_UNIT(*)
PLANE_ANGLE_UNIT()
SI_UNIT($,.RADIAN.)
);
#1392=(
NAMED_UNIT(*)
PLANE_ANGLE_UNIT()
SI_UNIT($,.RADIAN.)
);
#1393=(
LENGTH_UNIT()
NAMED_UNIT(*)
SI_UNIT($,.METRE.)
);
#1394=(
LENGTH_UNIT()
NAMED_UNIT(*)
SI_UNIT($,.METRE.)
);
#1395=(
LENGTH_UNIT()
NAMED_UNIT(*)
SI_UNIT($,.METRE.)
);
#1396=(
LENGTH_UNIT()
NAMED_UNIT(*)
SI_UNIT($,.METRE.)
);
#1397=(
LENGTH_UNIT()
NAMED_UNIT(*)
SI_UNIT($,.METRE.)
);
#1398=(
LENGTH_UNIT()
NAMED_UNIT(*)
SI_UNIT($,.METRE.)
);
#1399=PRODUCT_DEFINITION_SHAPE('','',#1405);
#1400=PRODUCT_DEFINITION_SHAPE('','',#1406);
#1401=PRODUCT_DEFINITION_SHAPE('','',#1407);
#1402=PRODUCT_DEFINITION_SHAPE('','',#1408);
#1403=PRODUCT_DEFINITION_SHAPE('','',#1409);
#1404=PRODUCT_DEFINITION_SHAPE('','',#1410);
#1405=PRODUCT_DEFINITION('','',#1417,#1411);
#1406=PRODUCT_DEFINITION('','',#1418,#1412);
#1407=PRODUCT_DEFINITION('','',#1419,#1413);
#1408=PRODUCT_DEFINITION('','',#1420,#1414);
#1409=PRODUCT_DEFINITION('','',#1421,#1415);
#1410=PRODUCT_DEFINITION('','',#1422,#1416);
#1411=PRODUCT_DEFINITION_CONTEXT('',#1453,'design');
#1412=PRODUCT_DEFINITION_CONTEXT('',#1454,'design');
#1413=PRODUCT_DEFINITION_CONTEXT('',#1455,'design');
#1414=PRODUCT_DEFINITION_CONTEXT('',#1456,'design');
#1415=PRODUCT_DEFINITION_CONTEXT('',#1457,'design');
#1416=PRODUCT_DEFINITION_CONTEXT('',#1458,'design');
#1417=PRODUCT_DEFINITION_FORMATION_WITH_SPECIFIED_SOURCE('','',#1429,
 .NOT_KNOWN.);
#1418=PRODUCT_DEFINITION_FORMATION_WITH_SPECIFIED_SOURCE('','',#1430,
 .NOT_KNOWN.);
#1419=PRODUCT_DEFINITION_FORMATION_WITH_SPECIFIED_SOURCE('','',#1431,
 .NOT_KNOWN.);
#1420=PRODUCT_DEFINITION_FORMATION_WITH_SPECIFIED_SOURCE('','',#1432,
 .NOT_KNOWN.);
#1421=PRODUCT_DEFINITION_FORMATION_WITH_SPECIFIED_SOURCE('','',#1433,
 .NOT_KNOWN.);
#1422=PRODUCT_DEFINITION_FORMATION_WITH_SPECIFIED_SOURCE('','',#1434,
 .NOT_KNOWN.);
#1423=PRODUCT_RELATED_PRODUCT_CATEGORY('','',(#1429));
#1424=PRODUCT_RELATED_PRODUCT_CATEGORY('','',(#1430));
#1425=PRODUCT_RELATED_PRODUCT_CATEGORY('','',(#1431));
#1426=PRODUCT_RELATED_PRODUCT_CATEGORY('','',(#1432));
#1427=PRODUCT_RELATED_PRODUCT_CATEGORY('','',(#1433));
#1428=PRODUCT_RELATED_PRODUCT_CATEGORY('','',(#1434));
#1429=PRODUCT('Part 5','Part 5','Part 5',(#1441));
#1430=PRODUCT('Part 3','Part 3','Part 3',(#1442));
#1431=PRODUCT('Part 2','Part 2','Part 2',(#1443));
#1432=PRODUCT('Part 6','Part 6','Part 6',(#1444));
#1433=PRODUCT('Part 4','Part 4','Part 4',(#1445));
#1434=PRODUCT('Part 1','Part 1','Part 1',(#1446));
#1435=PRODUCT_CATEGORY('','');
#1436=PRODUCT_CATEGORY('','');
#1437=PRODUCT_CATEGORY('','');
#1438=PRODUCT_CATEGORY('','');
#1439=PRODUCT_CATEGORY('','');
#1440=PRODUCT_CATEGORY('','');
#1441=PRODUCT_CONTEXT('',#1453,'mechanical');
#1442=PRODUCT_CONTEXT('',#1454,'mechanical');
#1443=PRODUCT_CONTEXT('',#1455,'mechanical');
#1444=PRODUCT_CONTEXT('',#1456,'mechanical');
#1445=PRODUCT_CONTEXT('',#1457,'mechanical');
#1446=PRODUCT_CONTEXT('',#1458,'mechanical');
#1447=APPLICATION_PROTOCOL_DEFINITION('international standard',
'ap242_managed_model_based_3d_engineering',2020,#1453);
#1448=APPLICATION_PROTOCOL_DEFINITION('international standard',
'ap242_managed_model_based_3d_engineering',2020,#1454);
#1449=APPLICATION_PROTOCOL_DEFINITION('international standard',
'ap242_managed_model_based_3d_engineering',2020,#1455);
#1450=APPLICATION_PROTOCOL_DEFINITION('international standard',
'ap242_managed_model_based_3d_engineering',2020,#1456);
#1451=APPLICATION_PROTOCOL_DEFINITION('international standard',
'ap242_managed_model_based_3d_engineering',2020,#1457);
#1452=APPLICATION_PROTOCOL_DEFINITION('international standard',
'ap242_managed_model_based_3d_engineering',2020,#1458);
#1453=APPLICATION_CONTEXT('managed model based 3d engineering');
#1454=APPLICATION_CONTEXT('managed model based 3d engineering');
#1455=APPLICATION_CONTEXT('managed model based 3d engineering');
#1456=APPLICATION_CONTEXT('managed model based 3d engineering');
#1457=APPLICATION_CONTEXT('managed model based 3d engineering');
#1458=APPLICATION_CONTEXT('managed model based 3d engineering');
ENDSEC;
END-ISO-10303-21;
